<svg width="60" height="60" fill="none" xmlns="http://www.w3.org/2000/svg"><path fill-rule="evenodd" clip-rule="evenodd" d="M7.91 24.61H1.908a2.641 2.641 0 012.487-1.758h51.21c1.146 0 2.124.734 2.487 1.757H7.91zm46.817 6.152c0 5.33-4.337 9.668-9.668 9.668H14.94c-5.33 0-9.668-4.337-9.668-9.668v-4.395h49.454v4.395zm-22.09 14.941h1.758v-3.516h-1.758v3.516zm-3.516 0h1.758v-3.516H29.12v3.516zm3.516 9.902A2.64 2.64 0 0130 58.242a2.64 2.64 0 01-2.637-2.636V47.46h5.274v8.145zm-7.032-9.902h1.758v-3.516h-1.758v3.516zm-4.687-24.61h2.93v-3.515h-2.93v3.516zM29.121 7.91a6.16 6.16 0 016.152-6.152c3.094 0 5.661 2.296 6.089 5.273H39.58a4.402 4.402 0 00-4.307-3.515A4.4 4.4 0 0030.88 7.91v13.184H29.12V7.91zm10.547 2.637h1.758V8.789h-1.758v1.758zm-3.516 10.547h2.93v-3.516h-2.93v3.516zm19.453 0H40.84v-3.516h3.222a.879.879 0 100-1.758h-8.789a.879.879 0 00-.879.88v4.394h-1.757V7.91a2.64 2.64 0 012.636-2.637A2.64 2.64 0 0137.91 7.91v3.516c0 .485.394.879.88.879h3.515a.879.879 0 00.879-.88V7.91c0-4.362-3.549-7.91-7.91-7.91-4.362 0-7.91 3.548-7.91 7.91v13.184h-1.759v-4.395a.879.879 0 00-.878-.879h-8.79a.879.879 0 100 1.758h3.223v3.516H4.395A4.4 4.4 0 000 25.488c0 .486.394.88.879.88h2.637v4.394c0 6.3 5.125 11.425 11.425 11.425h8.907v4.395c0 .486.393.879.879.879h.878v8.145A4.4 4.4 0 0030 60a4.4 4.4 0 004.395-4.395v-8.144h.878a.879.879 0 00.88-.88v-4.394h8.906c6.3 0 11.425-5.125 11.425-11.425v-4.395h2.637a.879.879 0 00.879-.879 4.4 4.4 0 00-4.395-4.394z" fill="#000"/></svg>