<svg width="41" height="60" fill="none" xmlns="http://www.w3.org/2000/svg"><path fill-rule="evenodd" clip-rule="evenodd" d="M11.239 57.586h18.794c-.093-.788-.253-1.54-.54-2.262a3.89 3.89 0 00-.686-1.117.572.572 0 00-.473-.209c-5.114.006-10.228.007-15.342 0-.248-.001-.409.091-.56.269-.5.591-.764 1.292-.938 2.032-.1.42-.17.848-.255 1.287zm9.405-19.182h16.528c.08 0 .163.001.243-.006.859-.076 1.374-.939 1.01-1.705-.244-.514-.678-.698-1.228-.698C26.16 36 15.123 35.998 4.086 36a2.26 2.26 0 00-.28.014c-.747.093-1.237.92-.965 1.626.189.491.624.765 1.22.765h16.583zm-7.16-17.828c.016.282.034.741.073 1.199.167 1.972.675 3.845 1.643 5.577.62 1.11 1.393 2.093 2.439 2.83 1.573 1.108 3.258 1.352 5.04.565 1.24-.549 2.159-1.486 2.916-2.592 1.139-1.665 1.758-3.531 2.05-5.514.2-1.365.21-2.734.047-4.105-.198-1.657-.637-3.242-1.401-4.726-.628-1.22-1.435-2.3-2.543-3.13-1.816-1.36-3.987-1.443-5.888-.212-1.132.732-1.961 1.748-2.62 2.91-1.232 2.175-1.724 4.54-1.757 7.198zm-8.34 20.229c0 .07-.005.132 0 .194.04.482.048.97.126 1.446.465 2.854 1.84 5.176 4.116 6.937 1.873 1.45 4.008 2.196 6.373 2.21 3.255.02 6.51.013 9.766-.002a9.396 9.396 0 001.753-.16c3.5-.685 6.079-2.633 7.735-5.806.605-1.159.946-2.405 1.083-3.705.038-.366.043-.735.064-1.114H5.144zm14.907-7.21c-1.045-.152-1.711-.332-2.438-.668-1.534-.708-2.752-1.798-3.731-3.163-1.608-2.241-2.405-4.784-2.684-7.507a18.509 18.509 0 01.066-4.277 16.36 16.36 0 011.143-4.304c.774-1.826 1.85-3.438 3.408-4.689 1.236-.992 2.628-1.624 4.215-1.758 1.818-.155 3.463.353 4.954 1.388 1.42.986 2.481 2.293 3.301 3.806 1.076 1.985 1.642 4.123 1.835 6.364a18.13 18.13 0 01-.406 5.776c-.536 2.261-1.461 4.33-3.01 6.082-1.03 1.168-2.255 2.068-3.74 2.56-.552.183-1.132.282-1.558.386h7.595v-1.163c0-.716.506-1.228 1.214-1.23.539-.002 1.077-.005 1.616.002.134.002.217-.032.28-.158.122-.241.264-.472.392-.71 1.483-2.755 2.267-5.708 2.43-8.83a21.9 21.9 0 00-.37-5.318c-.55-2.846-1.604-5.48-3.3-7.835-1.563-2.173-3.508-3.892-5.971-4.969-2.065-.903-4.218-1.188-6.442-.837-2 .316-3.8 1.125-5.426 2.332-2.106 1.563-3.685 3.57-4.867 5.903-1.205 2.376-1.889 4.905-2.13 7.555a21.893 21.893 0 00.249 5.906c.44 2.43 1.276 4.71 2.534 6.832a.3.3 0 00.219.12c.544.01 1.09.001 1.634.008.604.007 1.057.354 1.195.922.037.15.033.312.035.468.005.333.002.665.002 1.006h7.756zM.372 37.573v-.756c.013-.041.032-.081.037-.123.217-1.708 1.767-3.088 3.475-3.09H6.33c.004-.085.009-.148.009-.21.001-.32.003-.642 0-.963-.002-.28.068-.541.252-.752.103-.118.09-.203.023-.329-1.628-3.097-2.488-6.399-2.637-9.897-.117-2.741.197-5.429.99-8.053 1.083-3.589 2.88-6.751 5.644-9.307 2.293-2.12 4.956-3.497 8.063-3.948a13.737 13.737 0 015.126.218c2.665.62 4.963 1.93 6.957 3.793 2.38 2.225 4.041 4.925 5.154 7.978a23.835 23.835 0 011.4 7.018 24.266 24.266 0 01-.474 6.214 22.433 22.433 0 01-2.183 6.037c-.047.087-.06.145.017.229.208.228.289.51.29.815.002.316 0 .63.001.946 0 .066.007.132.01.21.758 0 1.496-.002 2.234.002.212.002.425.01.636.037 2.01.252 3.45 2.287 3 4.272-.29 1.285-1.046 2.19-2.263 2.642-.179 5.674-2.804 9.744-7.77 12.291.224.347.483.694.685 1.072.829 1.555 1.09 3.239 1.07 4.98a1.064 1.064 0 01-.146.48c-.26.466-.68.621-1.196.621-7.05-.005-14.101-.004-21.152-.004h-.13c-.732-.02-1.238-.536-1.216-1.272.015-.54.044-1.082.108-1.619.14-1.17.454-2.293 1.044-3.321.188-.33.418-.635.63-.953-.322-.17-.657-.335-.983-.518a13.152 13.152 0 01-5.35-5.586c-.957-1.874-1.413-3.873-1.414-5.978 0-.123-.03-.184-.151-.235-.923-.392-1.605-1.035-1.961-1.99-.115-.308-.184-.634-.274-.951z" fill="#000" opacity=".75"/></svg>