<svg width="48" height="60" fill="none" xmlns="http://www.w3.org/2000/svg"><g opacity=".749"><mask id="a" maskUnits="userSpaceOnUse" x="0" y="0" width="48" height="60"><path fill-rule="evenodd" clip-rule="evenodd" d="M0 0h47.89v59.882H0V0z" fill="#fff"/></mask><g mask="url(#a)"><path fill-rule="evenodd" clip-rule="evenodd" d="M45.976 4.771H44.06v-1.92c0-.524.43-.95.958-.95.529 0 .958.426.958.95v1.92zM44.06 53.228h1.916V6.672H44.06v46.556zm1.916 3.802c0 .524-.43.95-.958.95a.931.931 0 01-.943-.886c0-.017.01-.03.01-.048 0-.043-.019-.079-.024-.12V55.13h1.916v1.9h-.001zm-3.83-36.009a6.683 6.683 0 00-4.769-1.995H10.708c-.061-.013-.12-.037-.185-.037a1.89 1.89 0 01-1.895-1.881c0-1.036.85-1.88 1.895-1.88h26.854c.1 0 .194-.027.286-.056a6.679 6.679 0 004.482-1.981v7.83zm0 17.103a6.682 6.682 0 00-4.769-1.995c-.006 0-.012.004-.019.004h-26.63c-.068-.015-.133-.04-.205-.04a1.89 1.89 0 01-1.895-1.882 1.89 1.89 0 011.883-1.878c.005 0 .007.003.012.003h26.854c.11 0 .212-.028.31-.062a6.676 6.676 0 004.457-1.979v7.83h.001zm0 15.117h-31.4c-.072-.018-.143-.045-.222-.045a1.89 1.89 0 01-1.895-1.88c0-1.028.837-1.864 1.87-1.877.009 0 .016.005.024.005h26.854a.966.966 0 00.335-.067 6.678 6.678 0 004.433-1.978v5.842zm0 2.855H10.783c-.085-.023-.168-.052-.26-.052-2.629 0-4.768-2.122-4.768-4.733 0-2.6 2.126-4.714 4.743-4.727.009 0 .016.004.024.004h26.854a.953.953 0 00.396-.09c1.911-.2 3.412-1.79 3.412-3.74 0-2.084-1.709-3.782-3.809-3.782-.02 0-.036.01-.056.011H10.764c-.078-.02-.155-.048-.24-.048-2.63 0-4.769-2.123-4.769-4.733 0-2.604 2.133-4.722 4.756-4.73.005 0 .007.004.012.004h26.854c.14 0 .27-.033.39-.086 1.914-.197 3.418-1.79 3.418-3.741 0-2.084-1.709-3.782-3.809-3.782-.013 0-.024.007-.037.008H10.746c-.072-.019-.143-.045-.222-.045-2.629 0-4.768-2.123-4.768-4.733 0-2.608 2.138-4.73 4.768-4.73h26.854c.137 0 .266-.03.382-.081 1.918-.194 3.426-1.788 3.426-3.742 0-2.036-1.632-3.69-3.663-3.767-.05-.009-.095-.03-.147-.03H5.745v-.949h31.521c.038.005.072.022.111.022 2.628 0 4.766 2.122 4.766 4.732 0 2.609-2.137 4.731-4.766 4.731-.075 0-.142.026-.213.043h-26.64c-2.1 0-3.811 1.695-3.811 3.78 0 1.959 1.514 3.555 3.438 3.744.114.047.24.074.372.074h26.854c2.628 0 4.766 2.122 4.766 4.732 0 2.609-2.137 4.731-4.766 4.731-.082 0-.156.027-.232.047H10.542c-.006 0-.012-.004-.019-.004-2.1 0-3.81 1.696-3.81 3.78 0 1.956 1.51 3.551 3.43 3.743.117.05.245.079.38.079h26.853c.005 0 .008-.003.013-.003 2.622.008 4.753 2.126 4.753 4.732 0 2.608-2.137 4.73-4.766 4.73-.089 0-.17.028-.25.05H10.56c-.013 0-.024-.007-.037-.007-2.1 0-3.81 1.696-3.81 3.78 0 1.954 1.506 3.547 3.423 3.743a.954.954 0 00.386.084h31.621v.951h.002zM5.744 38.836a6.68 6.68 0 004.456 1.99.95.95 0 00.322.063h26.854c.014 0 .024-.006.038-.007a1.887 1.887 0 011.855 1.877c0 1.036-.849 1.879-1.893 1.879-.089 0-.17.028-.25.05H10.56c-.013 0-.024-.007-.037-.007-1.872 0-3.564.77-4.778 2.005v-7.85zm0-17.104a6.681 6.681 0 004.481 1.991c.096.032.192.06.298.06h26.854c.009 0 .017-.005.024-.005a1.887 1.887 0 011.868 1.879c0 1.036-.849 1.879-1.893 1.879-.082 0-.156.026-.232.046H10.542c-.006 0-.012-.003-.019-.003-1.872 0-3.564.77-4.778 2.004v-7.85zm0-15.075h31.559c.026.002.047.015.073.015a1.89 1.89 0 011.893 1.881c0 1.037-.849 1.88-1.893 1.88-.075 0-.142.025-.213.042h-26.64c-1.873 0-3.565.771-4.78 2.005V6.657zm-1.916-1.9H1.914V2.85a.954.954 0 011.908-.037c-.001.014-.008.024-.008.037 0 .026.014.049.015.074v1.831zm-1.915 48.47H3.83V6.658H1.914v46.57zM3.83 57.03c0 .524-.429.95-.957.95a.954.954 0 01-.958-.95v-1.901H3.83v1.9zM45.018 0c-1.584 0-2.873 1.28-2.873 2.851v1.067a6.677 6.677 0 00-4.621-1.988c-.05-.008-.096-.029-.149-.029H5.568A2.867 2.867 0 002.873 0C1.289 0 0 1.28 0 2.851V57.03c0 1.572 1.289 2.851 2.873 2.851 1.584 0 2.873-1.28 2.873-2.851v-1.09a6.679 6.679 0 004.431 1.988c.109.042.224.07.347.07h31.802a2.838 2.838 0 002.692 1.884c1.584 0 2.873-1.28 2.873-2.851V2.852C47.89 1.28 46.6 0 45.018 0z" fill="#000"/></g></g></svg>