<svg width="61" height="60" fill="none" xmlns="http://www.w3.org/2000/svg"><mask id="a" maskUnits="userSpaceOnUse" x="0" y="0" width="61" height="60"><path fill-rule="evenodd" clip-rule="evenodd" d="M0 0h61v59.975H0V0z" fill="#fff"/></mask><g mask="url(#a)"><path fill-rule="evenodd" clip-rule="evenodd" d="M58.882 26.017c0 .04-.033.073-.073.073h-5.66a1.06 1.06 0 000 2.123h3.47v2.342c0 .04-.033.073-.074.073H47.49a.073.073 0 01-.073-.073v-2.342h1.205a1.06 1.06 0 000-2.123H28.225c-4.329 0-7.85 3.53-7.85 7.868v23.894H2.117V21.48a2.342 2.342 0 012.337-2.342h50.958a3.476 3.476 0 013.469 3.476v3.403zM6.646 14.601h5.733a1.06 1.06 0 000-2.123H4.455a.073.073 0 01-.073-.073V5.599A3.476 3.476 0 017.85 2.123h35.09a1.207 1.207 0 010 2.414H21.434a1.06 1.06 0 00-1.06 1.062v6.806c0 .04-.032.073-.072.073h-3.396a1.06 1.06 0 00-1.06 1.061 1.06 1.06 0 001.06 1.062h1.205v2.414H6.646V14.6zm48.767 2.414H20.23v-2.414h.072c1.209 0 2.191-.985 2.191-2.196V6.66H42.94a3.33 3.33 0 000-6.66H7.85C4.77 0 2.264 2.512 2.264 5.599v6.806c0 1.21.983 2.196 2.19 2.196h.074v2.414h-.073A4.465 4.465 0 000 21.48v37.433a1.06 1.06 0 001.059 1.062h20.374a1.06 1.06 0 001.06-1.062V33.959c0-3.168 2.57-5.745 5.732-5.745h17.074v2.342c0 1.21.983 2.195 2.191 2.195h9.055c1.208 0 2.191-.985 2.191-2.195v-2.342h.073c1.208 0 2.191-.985 2.191-2.196v-3.403c0-3.087-2.506-5.599-5.587-5.599z" fill="#000"/></g></svg>