<svg width="36" height="60" fill="none" xmlns="http://www.w3.org/2000/svg"><mask id="a" maskUnits="userSpaceOnUse" x="0" y="0" width="36" height="60"><path fill-rule="evenodd" clip-rule="evenodd" d="M0 .117h35.907V60H0V.117z" fill="#fff"/></mask><g mask="url(#a)"><path fill-rule="evenodd" clip-rule="evenodd" d="M33.912 47.025a2.997 2.997 0 01-2.993 2.994H4.987a2.997 2.997 0 01-2.992-2.994v-.998h31.917v.998zm-9.974 6.986h3.99v-1.996h-3.99v1.996zm-15.959 0h3.99v-1.996h-3.99v1.996zM1.995 7.103h31.917v36.928H1.995V7.103zm2.992-4.99h25.932a2.997 2.997 0 012.993 2.994H1.995a2.997 2.997 0 012.992-2.994zm19.948 55.89h1.995v-1.995h-1.995v1.996zm-15.958 0h1.995v-1.995H8.977v1.996zM30.919.118H4.987A4.994 4.994 0 000 5.107v41.918a4.994 4.994 0 004.987 4.99h.997v2.994c0 .551.447.998.998.998v2.995c0 .55.447.998.997.998h3.99c.55 0 .997-.447.997-.998v-2.995c.55 0 .998-.447.998-.998v-2.994h7.979v2.994c0 .551.447.998.997.998v2.995c0 .55.447.998.998.998h3.99c.55 0 .997-.447.997-.998v-2.995c.55 0 .997-.447.997-.998v-2.994h.997a4.994 4.994 0 004.988-4.99V5.107a4.994 4.994 0 00-4.988-4.99z" fill="#000"/></g><path fill-rule="evenodd" clip-rule="evenodd" d="M17.953 11.096a1.996 1.996 0 01.997 3.722v-.728a.998.998 0 00-1.994 0v.728a1.996 1.996 0 01.997-3.722m0 5.988c2.2 0 3.99-1.79 3.99-3.992a3.995 3.995 0 00-3.99-3.992c-2.2 0-3.99 1.79-3.99 3.992a3.995 3.995 0 003.99 3.992M23.938 38.043a1 1 0 01-.998.998h-2.58l1.29-1.29a.997.997 0 10-1.41-1.412l-2.7 2.702h-4.574a1 1 0 01-.997-.998v-2.994a1 1 0 01.997-.998h9.974a1 1 0 01.998.998v2.994zm-.998-5.988h-9.974a2.997 2.997 0 00-2.992 2.994v2.994a2.997 2.997 0 002.992 2.994h9.974a2.997 2.997 0 002.992-2.994v-2.994a2.997 2.997 0 00-2.992-2.994z" fill="#000"/></svg>