<svg width="37" height="62" fill="none" xmlns="http://www.w3.org/2000/svg"><g fill="#000"><path fill-rule="evenodd" clip-rule="evenodd" d="M36.647 4.604l-.016 1.184v1.726l-.001 9.494c-.003 13.03-.005 26.06.03 39.091.003 1.143-.363 1.687-1.39 2.107-3.926 1.608-8.039 2.417-12.235 2.666-6.93.41-13.768-.09-20.355-2.59C1.41 57.803.995 57.219 1 55.85c.056-16.195.041-32.39.017-48.585v-.25c-.003-.406-.003-.417.08-1.565l.002-.036c.015-.169.07-.81.01-1.11 1.669-.35 3.215-.688 4.712-1.014 3.398-.74 6.541-1.425 10.294-2.084 3.318-.583 6.601.18 9.846.935.235.054.47.11.706.163l6.684 1.54.01.002.003.001 3.283.757zM25.136 3.68c-6.323-2.944-13.162-.035-13.162-.035v50.891c6.71 2.037 13.162 0 13.162 0V3.68zM3.875 4.92c1.532-.177 3.048-.495 4.61-.822.676-.141 1.36-.285 2.057-.42v50.963c-.52-.114-1.028-.22-1.525-.324-1.065-.223-2.085-.436-3.093-.698-3.623-.94-3.623-.96-3.623-4.652v-.016c0-2.972 0-5.944.002-8.916.002-11.031.004-22.063-.026-33.094-.003-1.227.182-1.857 1.598-2.02zM33.549 57.48c-.81.188-1.617.393-2.425.598-2.019.512-4.039 1.024-6.09 1.28-6.344.792-12.665.536-18.854-1.276-.36-.105-.715-.228-1.07-.35h-.001v-.001l-.485-.166c-1.265-.422-1.918-.64-2.203-1.092-.305-.481-.19-1.229.047-2.774 10.76 3.255 21.545 3.89 32.485-.135.024.283.039.523.052.735.023.39.04.68.106.961.309 1.338-.409 1.951-1.562 2.22zm-5.23-53.488c2.107.422 4.165.835 6.216 1.287.239.053.46.481.56.779.07.203.055.435.04.666-.005.095-.011.191-.011.285l-.001 9.183c-.002 11.583-.005 23.167.027 34.75.003 1.207-.304 1.778-1.557 2.017-1.217.232-2.416.56-3.615.889-.647.177-1.294.355-1.944.517-.285.071-.581.095-.915.122-.166.014-.34.028-.527.05V3.644l1.725.346h.001zM29.5 25H31v12h-1.5V25zM7 25H5.5v12H7V25z"/><path d="M36.63 5.788l-.25-.004v.004h.25zm.017-1.184l.25.003.003-.202-.196-.045-.057.244zm-.017 12.404h.25-.25zm.03 39.091h.25-.25zm-1.39 2.107l.095.231-.094-.23zm-12.235 2.666l.015.25-.015-.25zM2.68 58.282l.088-.233-.088.234zM1 55.85l-.25-.001H1zm.017-48.585h-.25.25zm0-.25l-.25.002.25-.002zm.08-1.565l-.25-.02v.002l.25.018zm.002-.036L.85 5.393l.25.021zm.01-1.11l-.052-.245-.242.05.048.243.246-.049zM5.82 3.29l-.053-.244.053.244zm10.294-2.084l-.043-.247.043.247zm9.846.935l-.057.243.057-.243zm.706.163l-.057.244.057-.244zm6.684 1.54l-.056.244.056-.244zm.01.002l.057-.243-.056.243zm.003.001l-.056.244.056-.244zm-21.39-.202l-.098-.23-.152.064v.166h.25zm13.162.035h.25v-.16l-.145-.067-.105.227zM11.973 54.536h-.25v.186l.177.053.073-.239zm13.162 0l.075.239.175-.056v-.183h-.25zM8.486 4.1l.052.245.003-.001-.054-.244zm-4.61.822l-.029-.248.029.248zm4.61-.822l-.05-.245h-.004l.055.245zm2.057-.42h.25v-.302l-.297.057.047.246zm0 50.963l-.054.244.304.067v-.31h-.25zm-1.525-.324l-.053.244h.002l.05-.244zm0 0l.052-.244h-.002l-.05.244zm-3.093-.698l.063-.242-.063.242zm-3.623-4.652h.25-.25zm.002-8.932h.25-.25zM2.278 6.942h-.25.25zm28.846 51.136l.062.242-.062-.242zm2.425-.599l-.057-.243.057.244zm-8.515 1.88l.03.247-.03-.248zM6.18 58.081l.07-.24-.07.24zm-1.07-.35l-.094.232.012.004.081-.237zm0 0l.092-.233-.011-.004-.082.236zm-.001 0l.082-.237h-.003l-.079.236zm0 0l-.084.235.004.001.08-.237zm0-.001l.083-.236H5.19l-.082.236zm-.485-.166l.08-.237-.08.237zm-2.203-1.092l-.212.134.212-.134zm.047-2.774l.072-.239-.276-.083-.043.284.247.038zm32.485-.135l.249-.022-.029-.325-.306.113.086.234zm.052.735l.25-.012v-.004l-.25.016zm0 0l-.25.012v.003l.25-.015zm.106.961l.243-.056-.243.056zM28.318 3.992l.05-.245h-.001l-.049.245zm0 0l-.05.245h.001l.05-.245zm6.217 1.287l-.054.244.054-.244zm.56.779l.238-.08-.237.08zm.04.666l.25.015-.25-.015zm-.011.285h-.25.25zm-.001 9.183h.25-.25zm.027 34.75h-.25.25zm-1.557 2.017l.047.246-.047-.246zm-3.615.889l.066.241-.066-.241zm-1.944.517l.06.243-.06-.243zm-.915.122l.015.25h.005l-.02-.25zm0 0l-.015-.25-.005.001.02.25zm-.527.05h-.25v.28l.278-.032-.028-.249zm0-50.892l.05-.245-.3-.06v.305h.25zm1.725.346l.049-.245-.05.245zM31 25h.25v-.25H31V25zm-1.5 0v-.25h-.25V25h.25zM31 37v.25h.25V37H31zm-1.5 0h-.25v.25h.25V37zm-24-12v-.25h-.25V25h.25zM7 25h.25v-.25H7V25zM5.5 37h-.25v.25h.25V37zM7 37v.25h.25V37H7zM36.88 5.791l.017-1.184-.5-.007-.016 1.184.5.007zm0 1.723V5.788h-.5v1.726h.5zm0 9.494V7.514h-.5v9.494h.5zm.03 39.09c-.035-13.03-.033-26.06-.03-39.09h-.5c-.003 13.03-.005 26.061.03 39.092l.5-.002zm-1.544 2.34c.535-.22.935-.486 1.194-.876.258-.39.352-.868.35-1.464l-.5.002c.002.547-.086.912-.267 1.185-.18.273-.477.489-.967.69l.19.462zM23.05 61.12c4.218-.25 8.359-1.063 12.315-2.684l-.189-.462c-3.897 1.596-7.982 2.4-12.156 2.647l.03.5zM2.59 58.516c6.633 2.516 13.508 3.017 20.46 2.605l-.03-.499c-6.91.41-13.708-.091-20.252-2.573l-.177.468zM.75 55.85c-.002.705.102 1.254.407 1.692.304.439.781.728 1.434.976l.177-.468c-.616-.234-.98-.477-1.2-.793-.22-.315-.32-.742-.318-1.406l-.5-.001zM.767 7.265C.791 23.46.806 39.655.75 55.849l.5.001c.056-16.195.041-32.39.017-48.586l-.5.001zm0-.248v.248h.5v-.251l-.5.003zm.08-1.585C.765 6.58.764 6.6.767 7.017l.5-.003c-.003-.395-.004-.398.079-1.546l-.5-.036zm.003-.039l-.003.037.498.04.003-.035-.498-.042zm.013-1.04c.024.117.027.325.019.546-.008.212-.025.41-.032.494l.498.042c.008-.084.025-.292.034-.518.008-.218.008-.48-.028-.663l-.49.098zm4.905-1.307c-1.497.326-3.042.663-4.71 1.013l.102.49c1.67-.351 3.217-.688 4.714-1.015l-.106-.488zM16.072.96c-3.759.66-6.907 1.346-10.304 2.086l.106.488c3.398-.74 6.537-1.424 10.284-2.082L16.072.96zm9.945.937C22.782 1.145 19.45.367 16.072.96l.086.493c3.26-.572 6.492.176 9.746.932l.113-.487zm.706.164l-.706-.164-.113.487.706.164.113-.487zm6.684 1.54c-2.177-.502-4.161-.96-6.684-1.54l-.112.487c2.523.58 4.507 1.038 6.684 1.54l.112-.487zm.01.002l-.01-.002-.112.487.01.002.113-.487zm.003 0h-.002l-.113.487h.003l.112-.487zm3.284.757l-3.284-.757-.112.488 3.283.756.113-.487zm-24.73-.715l.098.23.004-.002.013-.005a5.933 5.933 0 01.278-.108c.195-.072.482-.173.847-.285a20.14 20.14 0 013.005-.67c2.473-.354 5.71-.343 8.811 1.101l.211-.453c-3.221-1.5-6.565-1.505-9.093-1.142-1.265.182-2.33.457-3.08.686a16.255 16.255 0 00-1.17.408 2.012 2.012 0 00-.02.009h-.001l.097.23zm.25 50.891V3.645h-.5v50.891h.5zm12.912 0l-.076-.238-.003.001-.013.004-.053.016-.212.06c-.186.05-.46.121-.811.2-.702.157-1.708.346-2.923.472-2.431.253-5.686.252-8.998-.754l-.146.479c3.397 1.03 6.723 1.03 9.196.773a26.035 26.035 0 002.98-.482 18.985 18.985 0 001.113-.286l.015-.005h.004l.001-.001-.075-.239zm-.25-50.856v50.856h.5V3.68h-.5zm-16.45.174c-1.565.328-3.07.643-4.589.819l.058.497c1.545-.18 3.072-.5 4.633-.826l-.103-.49zm-.004 0v.001l.109.488-.109-.488zm2.063-.42c-.7.135-1.385.279-2.06.42l.103.49c.675-.142 1.357-.285 2.052-.419l-.095-.49zm.298 51.208V3.68h-.5v50.962h.5zm-1.826-.08c.497.105 1.003.21 1.522.325l.107-.489c-.521-.114-1.03-.22-1.527-.325l-.102.49zm-.003 0h.001l.105-.488-.106.488zm-3.102-.7c1.015.264 2.04.478 3.104.7l.102-.489a66.294 66.294 0 01-3.08-.695l-.126.484zm-3.81-4.894c0 .917 0 1.626.058 2.178.059.555.18.988.448 1.334.268.345.658.572 1.185.77.524.198 1.219.379 2.12.612l.125-.484c-.91-.236-1.575-.41-2.07-.596-.491-.185-.78-.37-.965-.609-.185-.238-.29-.562-.345-1.079-.055-.52-.056-1.198-.056-2.126h-.5zm0-.016v.016h.5v-.016h-.5zm.002-8.916l-.002 8.916h.5c0-2.972 0-5.944.002-8.916h-.5zM2.028 6.943c.03 11.03.028 22.062.026 33.093h.5c.002-11.031.004-22.063-.026-33.095l-.5.002zm1.82-2.27c-.737.085-1.227.3-1.51.72-.271.403-.312.941-.31 1.55l.5-.002c-.002-.618.049-1.008.224-1.268.162-.242.473-.425 1.153-.503l-.058-.497zM31.185 58.32c.808-.205 1.613-.41 2.42-.597l-.114-.487c-.812.189-1.622.395-2.43.6l.124.484zm-6.121 1.286c2.07-.258 4.104-.775 6.12-1.286l-.122-.485c-2.022.513-4.027 1.021-6.06 1.275l.062.496zM6.11 58.322c6.228 1.823 12.584 2.08 18.955 1.284l-.062-.496c-6.317.789-12.602.532-18.753-1.268l-.14.48zm-1.082-.354c.354.122.715.247 1.082.354l.14-.48a23.206 23.206 0 01-1.059-.347l-.163.473zm-.011-.005l.185-.464-.185.464zm.01.005l.164-.473-.163.473zm.002 0l.16-.474h-.001l-.159.474zm-.004-.001l.167-.472-.167.472zm-.48-.164c.16.053.32.108.482.164l.163-.472-.486-.167-.159.475zm-2.336-1.196c.181.286.468.479.842.65.372.171.867.336 1.494.546l.159-.475c-.638-.213-1.103-.368-1.445-.525-.34-.156-.523-.298-.627-.463l-.423.267zm.012-2.946c-.118.767-.209 1.356-.23 1.813-.02.457.025.827.218 1.133l.423-.267c-.111-.176-.16-.42-.141-.844.02-.423.104-.98.224-1.759l-.494-.076zm32.645-.331c-10.875 4.001-21.603 3.373-32.326.13l-.145.479c10.798 3.265 21.64 3.908 32.644-.14l-.172-.47zm.388.953a25.95 25.95 0 00-.052-.74l-.498.043c.024.28.038.516.051.728l.5-.03zm0 .004l-.499.023.5-.023zm.1.917c-.059-.257-.076-.526-.1-.92l-.499.03c.023.384.042.697.112 1.003l.487-.113zm-1.748 2.519c.598-.14 1.13-.378 1.467-.795.346-.43.448-1.003.281-1.724l-.487.112c.143.617.04 1.02-.183 1.298-.234.29-.637.493-1.192.622l.114.487zm-5.24-53.976l-.097.49.098-.49zm6.223 1.288c-2.053-.452-4.115-.866-6.222-1.288l-.098.49c2.108.423 4.164.835 6.212 1.286l.108-.488zm.744.943a2.49 2.49 0 00-.256-.537 1.301 1.301 0 00-.197-.243.633.633 0 00-.291-.163l-.108.488s.02.005.058.04a.808.808 0 01.119.15c.084.13.156.29.2.424l.475-.159zm.052.761c.014-.22.035-.503-.052-.761l-.474.16c.05.148.042.327.027.57l.499.031zm-.011.27c0-.085.005-.173.011-.27l-.499-.03c-.006.094-.012.197-.012.3h.5zm-.001 9.183V7.009h-.5v9.183h.5zm.027 34.75c-.032-11.584-.03-23.167-.027-34.75h-.5c-.002 11.583-.005 23.167.027 34.75h.5zm-1.76 2.263c.654-.125 1.118-.346 1.405-.745.282-.391.356-.904.355-1.519l-.5.002c.001.592-.076.968-.26 1.225-.18.248-.495.431-1.093.545l.093.492zm-3.596.884c1.201-.33 2.39-.655 3.596-.884l-.093-.492c-1.23.234-2.437.566-3.635.894l.132.482zm-1.95.519a87.419 87.419 0 001.95-.519l-.132-.482c-.647.178-1.292.354-1.938.516l.12.485zm-.955.129c.33-.027.647-.053.956-.13l-.121-.484c-.262.065-.537.088-.875.115l.04.499zm-.005 0l-.03-.5.03.5zm-.514.048c.182-.02.353-.035.52-.048l-.041-.499c-.166.014-.344.028-.535.05l.056.497zm-.278-51.14v50.891h.5V3.645h-.5zm2.024.101L26.64 3.4l-.099.49 1.725.347.099-.49zm.001 0h-.001l-.099.49h.002l.098-.49zM31 24.75h-1.5v.5H31v-.5zM31.25 37V25h-.5v12h.5zm-1.75.25H31v-.5h-1.5v.5zM29.25 25v12h.5V25h-.5zm-23.75.25H7v-.5H5.5v.5zM5.75 37V25h-.5v12h.5zM7 36.75H5.5v.5H7v-.5zM6.75 25v12h.5V25h-.5z"/></g></svg>