<svg width="37" height="23" fill="none" xmlns="http://www.w3.org/2000/svg"><mask id="a" maskUnits="userSpaceOnUse" x="0" y="0" width="37" height="23"><path fill-rule="evenodd" clip-rule="evenodd" d="M0 .07h37v22.921H0V.071z" fill="#fff"/></mask><g mask="url(#a)"><path fill-rule="evenodd" clip-rule="evenodd" d="M35.841 14.595h-.656a.65.65 0 01-.657-.643v-.643h1.313v1.286zm-4.982 7.261c-1.384 0-2.51-1.102-2.51-2.458 0-1.355 1.126-2.458 2.51-2.458s2.51 1.102 2.51 2.458-1.126 2.459-2.51 2.459zm-20.392 0c-1.385 0-2.51-1.102-2.51-2.458 0-1.355 1.125-2.458 2.51-2.458 1.384 0 2.51 1.102 2.51 2.458s-1.126 2.459-2.51 2.459zM27.113 9.754V6.047h5.148l.946 3.706h-6.094zm0-6.127h4.364c.703 0 1.275.56 1.275 1.248v.038h-5.64V3.626zm7.297 6.161l-.958-3.753a.57.57 0 00.458-.555v-.605c0-1.313-1.091-2.382-2.433-2.382h-4.364V1.243c0-.646-.537-1.172-1.197-1.172H3.669c-.66 0-1.197.526-1.197 1.172v10.288c0 .313.26.567.58.567.319 0 .578-.254.578-.567V1.243c0-.02.018-.037.04-.037h22.245c.022 0 .04.016.04.037v10.288c0 .313.258.567.578.567.32 0 .58-.253.58-.567v-.643h6.837c.84 0 1.555.541 1.8 1.286H33.95c-.32 0-.58.254-.58.567v1.21c0 .981.815 1.778 1.816 1.778h.656v2.497h-1.515a3.67 3.67 0 00-3.467-2.421 3.67 3.67 0 00-3.468 2.42h-.278v-4.273a.573.573 0 00-.58-.568c-.32 0-.58.254-.58.568v4.274H13.935a3.67 3.67 0 00-3.467-2.421 3.67 3.67 0 00-3.468 2.42H3.67a.038.038 0 01-.039-.037V16.94h2.51c.32 0 .58-.254.58-.568a.573.573 0 00-.58-.567H.58c-.32 0-.58.254-.58.567 0 .314.26.568.58.568h1.892v1.248c0 .646.537 1.172 1.197 1.172H6.8l-.001.038c0 1.981 1.646 3.593 3.669 3.593s3.669-1.612 3.669-3.593l-.001-.038H27.19l-.001.038c0 1.981 1.646 3.593 3.669 3.593s3.669-1.612 3.669-3.593v-.038h1.893c.32 0 .579-.254.579-.567V12.74c0-1.494-1.126-2.735-2.59-2.954z" fill="#fff"/></g><path fill-rule="evenodd" clip-rule="evenodd" d="M10.467 18.226c-.66 0-1.197.526-1.197 1.172 0 .647.537 1.173 1.197 1.173s1.197-.526 1.197-1.173c0-.646-.537-1.172-1.197-1.172M30.859 18.226c-.66 0-1.197.526-1.197 1.172 0 .647.537 1.173 1.197 1.173s1.197-.526 1.197-1.173c0-.646-.537-1.172-1.197-1.172M24.062 15.805H15.41c-.32 0-.579.27-.579.604 0 .334.26.604.58.604h8.65c.32 0 .58-.27.58-.604a.592.592 0 00-.58-.604M9.23 13.384H1.816c-.32 0-.58.27-.58.604 0 .334.26.604.58.604h7.416c.32 0 .579-.27.579-.604a.592.592 0 00-.58-.604M20.146 5.683a.588.588 0 00-.82 0l-5.152 5.046-2.68-2.625a.588.588 0 00-.819 0 .559.559 0 000 .802l3.09 3.026a.584.584 0 00.82 0l5.56-5.446a.559.559 0 000-.803" fill="#fff"/></svg>