<svg width="34" height="34" fill="none" xmlns="http://www.w3.org/2000/svg"><path fill-rule="evenodd" clip-rule="evenodd" d="M.075 3.168l2.263 3.954c.077.133.204.23.354.267l2.112.527 7.243 7.23.8-.798L5.49 7.005a.565.565 0 00-.263-.149l-2.03-.508L1.273 2.98l1.652-1.65L6.3 3.256l.51 2.025c.024.1.075.19.148.263l7.356 7.343.8-.799-7.243-7.23-.528-2.107a.566.566 0 00-.268-.353L3.114.138a.567.567 0 00-.68.091L.173 2.49a.564.564 0 00-.097.679zM23.6 11.192L11.153 23.62l-.8-.798L22.8 10.394l.8.798zM8.168 29.434H5.413l-1.358-2.26 1.358-2.26h2.755l1.358 2.26-1.358 2.26zm.805-5.375a.566.566 0 00-.485-.274H5.093a.565.565 0 00-.485.274L2.91 26.883a.564.564 0 000 .582l1.698 2.825c.102.17.286.273.485.273h3.395a.567.567 0 00.485-.273l1.698-2.825a.564.564 0 000-.582L8.973 24.06z" fill="#fff"/><mask id="a" maskUnits="userSpaceOnUse" x="0" y="0" width="34" height="34"><path fill-rule="evenodd" clip-rule="evenodd" d="M0 .06h33.966v33.907H0V.06z" fill="#fff"/></mask><g mask="url(#a)"><path fill-rule="evenodd" clip-rule="evenodd" d="M25.259 12.46L12.422 25.273a.565.565 0 00-.15.537 5.685 5.685 0 01-4.114 6.914 5.697 5.697 0 01-6.926-4.108 5.686 5.686 0 014.115-6.914 5.708 5.708 0 012.811 0 .571.571 0 00.538-.149L21.529 8.741a.564.564 0 00.149-.537A5.621 5.621 0 0127.483 1.2l-2.985 2.98a.564.564 0 00-.137.578l1.131 3.39c.057.168.19.3.359.356l3.395 1.13a.567.567 0 00.579-.136l2.985-2.98a5.625 5.625 0 01-7.016 5.794.567.567 0 00-.538.148h.003zm-2.285 5.682a1.76 1.76 0 00.219 2.484c.657.55 1.614.549 2.27-.002l6.35 6.345c.07.069.134.141.197.215l-4.839 4.83a3.316 3.316 0 01-.216-.196L20.6 25.474a1.76 1.76 0 00-.219-2.483 1.768 1.768 0 00-2.27 0l-.906-.903 4.863-4.848.906.902zm6.41 14.681c-.41 0-.818-.075-1.203-.219l4.42-4.412a3.424 3.424 0 01-3.216 4.631zm-2.223-19.205c3.737.012 6.778-3.002 6.79-6.733a6.749 6.749 0 00-.208-1.684.566.566 0 00-.949-.263l-3.522 3.514-2.795-.93-.932-2.79 3.523-3.516a.564.564 0 00-.266-.948c-3.624-.916-7.306 1.274-8.224 4.892a6.726 6.726 0 00-.07 3.003L8.117 20.533a6.687 6.687 0 00-1.326-.137C3.04 20.396 0 23.43 0 27.174c0 3.744 3.04 6.779 6.79 6.779s6.79-3.035 6.79-6.779a6.635 6.635 0 00-.137-1.323l2.967-2.962 1.297 1.295c.221.22.58.22.8 0l.283-.282a.638.638 0 01.898 0 .632.632 0 010 .895l-.283.283a.564.564 0 000 .799l6.75 6.738a4.573 4.573 0 006.459.03 4.554 4.554 0 00.029-6.448l-.03-.03-6.75-6.737a.567.567 0 00-.8 0l-.282.282a.637.637 0 01-.898 0 .632.632 0 01-.001-.895h.001l.283-.283a.564.564 0 000-.799l-1.297-1.295 2.966-2.962c.437.09.88.136 1.326.138z" fill="#fff"/></g><path fill-rule="evenodd" clip-rule="evenodd" d="M29.26 28.47l-.8.798-5.66-5.648.8-.8 5.66 5.65z" fill="#fff"/></svg>