<svg width="35" height="40" fill="none" xmlns="http://www.w3.org/2000/svg"><mask id="a" maskUnits="userSpaceOnUse" x="0" y="0" width="35" height="40"><path fill-rule="evenodd" clip-rule="evenodd" d="M0 0h35v40H0V0z" fill="#fff"/></mask><g mask="url(#a)" fill-rule="evenodd" clip-rule="evenodd" fill="#fff"><path d="M29.057 38.667h4.622v-1.334h-4.622v1.334zM30.377 36h1.982v-1.333h-1.982V36zm0-2.667v-6.666h-.009a16.7 16.7 0 001.99-3.472v10.138h-1.98zM5.283 16.667c0-6.628 5.322-12 11.887-12s11.887 5.372 11.887 12c0 6.627-5.322 12-11.887 12-6.562-.008-11.88-5.376-11.887-12zM17.17 32a15.07 15.07 0 01-11.858-5.75l-.029.023V22.44c3.176 6.61 11.058 9.37 17.606 6.164 6.547-3.206 9.281-11.163 6.105-17.773C25.82 4.22 17.936 1.46 11.39 4.667c-4.553 2.229-7.439 6.892-7.427 12v14.666h-1.98V16.667c0-8.469 6.8-15.334 15.188-15.334 8.388 0 15.188 6.865 15.188 15.334 0 8.468-6.8 15.333-15.188 15.333zM3.36 38.667h-.776l-.537-6h1.856l-.544 6zM34.34 36h-.66V16.667C33.68 7.462 26.287 0 17.17 0 8.052 0 .66 7.462.66 16.667v14.666H0v1.334h.718l.603 6.727a.663.663 0 00.66.606h1.981a.663.663 0 00.66-.606l.604-6.727h.717v-1.334h-.66v-3.108a16.372 16.372 0 0023.774-.01V36h-.66a.664.664 0 00-.661.667v2.666c0 .369.296.667.66.667h5.944c.364 0 .66-.298.66-.667v-2.666a.664.664 0 00-.66-.667z"/><path d="M17.17 25.333c-4.742 0-8.585-3.88-8.585-8.666C8.59 11.881 12.43 8.004 17.17 8c4.741 0 8.585 3.88 8.585 8.666 0 4.787-3.844 8.667-8.585 8.667m0-18.666c-5.47 0-9.906 4.477-9.906 10 .006 5.52 4.438 9.993 9.906 10 5.47 0 9.905-4.478 9.905-10 0-5.523-4.434-10-9.905-10"/><path d="M17.17 22c-2.918 0-5.283-2.388-5.283-5.333.003-2.945 2.366-5.33 5.283-5.334 2.917 0 5.283 2.388 5.283 5.334 0 2.945-2.366 5.333-5.283 5.333m0-12c-3.648 0-6.604 2.985-6.604 6.667.004 3.68 2.958 6.662 6.604 6.666 3.647 0 6.603-2.984 6.603-6.666 0-3.682-2.956-6.667-6.603-6.667"/></g></svg>