<svg width="35" height="35" fill="none" xmlns="http://www.w3.org/2000/svg"><mask id="a" maskUnits="userSpaceOnUse" x="3" y="0" width="32" height="25"><path fill-rule="evenodd" clip-rule="evenodd" d="M3.555 0H35v24.61H3.555V0z" fill="#fff"/></mask><g mask="url(#a)"><path fill-rule="evenodd" clip-rule="evenodd" d="M33.633 22.275l-5.913-5.913a.683.683 0 00-.24-1.323h-4.544c-2.854 0-4.258-1.511-5.564-3.412a7.5 7.5 0 00.402-.693c.046.002.09.003.136.003h1.144a4.796 4.796 0 004.325 2.735.684.684 0 000-1.367 3.425 3.425 0 01-3.224-2.28.684.684 0 00-.645-.455h-1.6a2.05 2.05 0 01-1.933-1.367h7.402a.684.684 0 000-1.367h-4.816a7.443 7.443 0 00-.252-1.367h6.152l9.17 9.17v7.636zm-22.559-8.603A6.16 6.16 0 014.922 7.52a6.16 6.16 0 016.152-6.153 6.155 6.155 0 016.115 5.469h-2.013a.684.684 0 00-.684.684c0 1.324.77 2.506 1.915 3.07a6.121 6.121 0 01-5.333 3.082zm23.726.2l-9.57-9.57a.684.684 0 00-.484-.2h-6.973A7.521 7.521 0 0011.074 0c-4.146 0-7.52 3.373-7.52 7.52 0 4.146 3.374 7.52 7.52 7.52 2.074 0 4-.828 5.411-2.298 1.394 1.946 3.152 3.664 6.45 3.664h2.895l8.003 8.003A.684.684 0 0035 23.926v-9.57a.684.684 0 00-.2-.484z" fill="#fff"/></g><path fill-rule="evenodd" clip-rule="evenodd" d="M10.664 16.816a.684.684 0 00-.683.684v2.861l-.2-.2a.684.684 0 00-.968.967l1.368 1.367a.682.682 0 00.967 0l1.367-1.367a.684.684 0 00-.967-.967l-.2.2V17.5a.684.684 0 00-.684-.684M19.365 33.633H1.367v-5.47h3.194a4.84 4.84 0 00-.05.685.684.684 0 001.368 0c0-.392.065-.775.194-1.14a3.426 3.426 0 013.224-2.279h4.668a2.054 2.054 0 01-1.934 1.368H9.297a.684.684 0 00-.684.683 3.42 3.42 0 003.418 3.418h6.513l.014.001c.175 0 .35-.067.484-.2l3.301-3.302.008-.008a2.059 2.059 0 012.38-.34l-5.366 6.584zm-.889-6.236c.63-.63 1.57-.763 2.333-.4l-2.535 2.534h-1.932l2.134-2.134zm3.387-1.365a3.424 3.424 0 00-4.354.398l-3.1 3.101H12.03a2.054 2.054 0 01-1.933-1.367h1.933a3.422 3.422 0 003.418-3.418.684.684 0 00-.683-.683h-5.47a4.795 4.795 0 00-4.323 2.734H.683A.684.684 0 000 27.48v6.836c0 .378.306.684.684.684H19.69c.205 0 .4-.093.53-.252l6.02-7.386a.684.684 0 00-.048-.915 3.431 3.431 0 00-4.329-.415zM11.636 5.492c-.31-.137-.768-.137-1.235-.137h-.302v2.06h.503c.595 0 .97-.056 1.236-.285.229-.192.32-.448.32-.85a.87.87 0 00-.521-.788zM7.454 7.414h.87v-3.34h2.919c.87 0 1.428.146 1.895.448.558.357.85.924.85 1.72 0 .614-.219 1.236-.622 1.639-.549.54-1.171.824-2.169.824H10.1v.412h3.533v1.3h-3.533v.521H8.323v-.522h-.87v-1.3h.87v-.411h-.87v-1.29z" fill="#fff"/></svg>