<svg width="24" height="35" fill="none" xmlns="http://www.w3.org/2000/svg"><path fill-rule="evenodd" clip-rule="evenodd" d="M5.272 9.57l.313-3.076h3.222l.26 3.076H5.273zm1.406-4.614c0-.283.234-.513.522-.513.288 0 .522.23.522.513v.513H6.678v-.513zm3.473 5.046L9.807 5.94a.518.518 0 00-.52-.47h-.522v-.513c0-.848-.702-1.538-1.565-1.538s-1.565.69-1.565 1.538v.513h-.522c-.268 0-.492.2-.52.461l-.417 4.102a.507.507 0 00.133.395c.099.107.24.169.387.169h4.94a.517.517 0 00.515-.594z" fill="#fff"/><mask id="a" maskUnits="userSpaceOnUse" x="0" y="0" width="24" height="33"><path fill-rule="evenodd" clip-rule="evenodd" d="M0 0h23.999v32.025H0V0z" fill="#fff"/></mask><g mask="url(#a)"><path fill-rule="evenodd" clip-rule="evenodd" d="M19.825 4.101v-2.35l2.393 2.35h-2.393zm4.171.462l-.005-.037-.003-.013a.447.447 0 00-.01-.043l-.002-.005a.596.596 0 00-.015-.042l-.002-.005a.487.487 0 00-.019-.039l-.003-.007a.509.509 0 00-.02-.034l-.006-.009a.518.518 0 00-.024-.03l-.007-.01a.53.53 0 00-.034-.037L19.672.15a.516.516 0 00-.038-.034l-.01-.007a.463.463 0 00-.03-.022l-.01-.006a.504.504 0 00-.034-.02l-.008-.004a.544.544 0 00-.039-.018l-.005-.002a.518.518 0 00-.043-.015L19.45.021a.537.537 0 00-.043-.01c-.004-.002-.009-.002-.013-.003a.514.514 0 00-.09-.008H.522A.517.517 0 000 .513v30.999c0 .283.234.513.522.513h11.826c.288 0 .521-.23.521-.513a.517.517 0 00-.521-.513H1.043V1.025h17.739v3.59c0 .282.233.512.521.512h3.652v25.872H20a.517.517 0 00-.522.513c0 .283.234.513.522.513h3.477c.288 0 .522-.23.522-.513V4.614l-.003-.051z" fill="#fff"/></g><path fill-rule="evenodd" clip-rule="evenodd" d="M19.303 14.594H4.696a.517.517 0 00-.522.513c0 .283.233.513.522.513h14.607c.289 0 .522-.23.522-.513a.517.517 0 00-.522-.513M19.303 17.33H4.696a.517.517 0 00-.522.512c0 .283.233.513.522.513h14.607c.289 0 .522-.23.522-.513a.517.517 0 00-.522-.513M19.303 20.064H4.696a.517.517 0 00-.522.512c0 .283.233.513.522.513h14.607c.289 0 .522-.23.522-.513a.517.517 0 00-.522-.512M10.956 22.798h-6.26a.517.517 0 00-.522.513c0 .283.233.512.522.512h6.26c.288 0 .522-.23.522-.512a.517.517 0 00-.522-.513" fill="#fff"/><mask id="b" maskUnits="userSpaceOnUse" x="12" y="24" width="8" height="11"><path fill-rule="evenodd" clip-rule="evenodd" d="M12.521 24.165h7.305V35H12.52V24.165z" fill="#fff"/></mask><g mask="url(#b)"><path fill-rule="evenodd" clip-rule="evenodd" d="M16.174 30.317c-1.439 0-2.609-1.15-2.609-2.563 0-1.414 1.17-2.564 2.609-2.564 1.438 0 2.608 1.15 2.608 2.564 0 1.413-1.17 2.563-2.608 2.563zm.333 2.409l-.007-.006-.012-.009-.028-.02-.017-.01-.027-.015a.615.615 0 00-.142-.049l-.027-.004a.662.662 0 00-.023-.003l-.025-.002h-.048l-.029.002-.02.002-.03.005-.018.004-.03.008-.02.007-.028.01-.022.01-.023.01-.026.015-.018.01-.028.02-.011.009-.008.005-.884.696v-2.284a3.692 3.692 0 002.435 0v2.283l-.884-.694zm3.319-4.972c0-1.979-1.639-3.589-3.652-3.589-2.014 0-3.652 1.61-3.652 3.589 0 1.14.544 2.157 1.39 2.815v3.918l.002.016.001.032.003.021.005.028.005.023.007.026.008.024c.003.008.005.016.009.023l.01.024.011.021.014.025.012.019.018.025.01.014.003.002a.511.511 0 00.037.04l.011.01a.601.601 0 00.095.07l.028.015.02.01a.51.51 0 00.033.012l.018.007a.465.465 0 00.037.01l.015.004a.548.548 0 00.043.007l.012.002a.524.524 0 00.052.003h.006c.025 0 .05-.003.074-.006l.016-.003a.507.507 0 00.073-.018l.012-.004a.537.537 0 00.073-.032l.002-.001a.516.516 0 00.07-.045c0-.002.002-.002.004-.003l1.413-1.111 1.413 1.11.005.003a.534.534 0 00.069.046l.002.001a.514.514 0 00.072.032l.013.004a.515.515 0 00.073.018l.015.003c.025.003.05.006.075.006h.005a.525.525 0 00.052-.003l.012-.002a.543.543 0 00.043-.007l.015-.004a.487.487 0 00.038-.01l.018-.006a.725.725 0 00.033-.014l.02-.009a.518.518 0 00.074-.045l.019-.014.03-.025.01-.01a.496.496 0 00.038-.041l.002-.003.01-.013a.468.468 0 00.019-.025l.011-.019.015-.025.01-.02.011-.025.009-.023.008-.024.007-.026.005-.023a.582.582 0 00.005-.028l.002-.021a.462.462 0 00.002-.032V30.57a3.562 3.562 0 001.392-2.815z" fill="#fff"/></g><path fill-rule="evenodd" clip-rule="evenodd" d="M16.174 28.267a.518.518 0 01-.522-.513c0-.283.234-.513.522-.513.287 0 .521.23.521.513a.518.518 0 01-.521.513m0-2.051c-.864 0-1.566.69-1.566 1.538 0 .848.702 1.538 1.566 1.538.863 0 1.565-.69 1.565-1.538 0-.848-.702-1.538-1.565-1.538" fill="#fff"/></svg>