<svg width="27" height="39" fill="none" xmlns="http://www.w3.org/2000/svg"><mask id="a" maskUnits="userSpaceOnUse" x="0" y="0" width="27" height="29"><path fill-rule="evenodd" clip-rule="evenodd" d="M0 .075h26.992v28.853H0V.075z" fill="#fff"/></mask><g mask="url(#a)"><path fill-rule="evenodd" clip-rule="evenodd" d="M20.857 28.928H6.134v-1.202a7.257 7.257 0 00-2.246-5.15A13.028 13.028 0 014 3.9c5.29-5.13 13.821-5.096 19.069.076a13.028 13.028 0 01-.042 18.676 7.05 7.05 0 00-2.17 5.074v1.202z" fill="#FFCB5A"/></g><path fill-rule="evenodd" clip-rule="evenodd" d="M7.25 32h12.5c.69 0 1.25.447 1.25 1 0 .552-.56 1-1.25 1H7.25C6.56 34 6 33.552 6 33c0-.553.56-1 1.25-1zM9.25 37h7.5c.69 0 1.25.447 1.25 1 0 .552-.56 1-1.25 1h-7.5C8.56 39 8 38.552 8 38c0-.553.56-1 1.25-1z" fill="#62808C"/><mask id="b" maskUnits="userSpaceOnUse" x="0" y="0" width="27" height="39"><path fill-rule="evenodd" clip-rule="evenodd" d="M0 39h27V0H0v39z" fill="#fff"/></mask><g mask="url(#b)" fill-rule="evenodd" clip-rule="evenodd" fill="#fff"><path d="M5 14h2v-2H5v2zM10 14.428h2.333V29h2.334V14.428H17V12h-7v2.428zM20 14h2v-2h-2v2z"/></g></svg>