<svg width="48" height="45" fill="none" xmlns="http://www.w3.org/2000/svg"><path fill-rule="evenodd" clip-rule="evenodd" d="M23.22 45h9.089v-6.64l1.519-5.31 6.438-1.517L45 26.603v-4.397l-1.326-6.98-3.787-2.655-6.628-.944s1.13-10.443-5.302-10.623c-6.432-.18-9.279 6.068-9.279 6.068s1.515-2.845-2.65-4.74C11.86.434 3.717-.056 2.013 5.878.31 11.812-.644 20.843 11.1 22.206c0 0-1.133 5.155.761 8 1.894 2.844 8.332 3.413 8.332 3.413l3.03-.155L23.22 45z" fill="#fff"/><mask id="a" maskUnits="userSpaceOnUse" x="0" y="0" width="48" height="46"><path fill-rule="evenodd" clip-rule="evenodd" d="M11.31.11C4.61.113.058 6.345 0 12.485v.231c.047 5.118 3.245 10.117 10.957 11.331-.239.659-.535 1.907-.538 3.027h.02c-.206 5.62 5.676 10.227 11.218 8.68A19.892 19.892 0 0123.919 45l3-.052c.051-4.448-1.47-9.111-3.947-12.887-9.704 4.873-13.736-9.927-3.553-10.961v-2.988a8.986 8.986 0 00-6.64 2.934c-18.48-.804-7.613-26.582 5.705-14.993a8.848 8.848 0 00-.565 3.097h3c1.153-10.832 17.403-5.513 10.03 5.364 10.516-3.523 16.122 5.076 13.14 11.854-3.4 7.197-13.283 6.488-16.305.068l-2.71 1.281c1.503 3.15 4.323 5.445 7.61 6.37-1.724 3.152-2.795 7.165-2.765 10.913l3-.052c-.014-3.46 1.028-7.333 2.949-10.404h.01a.194.194 0 01.04 0v-.003c16.575-.996 15.261-23.525-.134-23.896C36.79 5.4 32.328.06 26.919.197v-.01a8.993 8.993 0 00-6.864 3.18C16.913 1.072 13.957.112 11.331.11h-.02z" fill="#fff"/></mask><g mask="url(#a)"><path fill-rule="evenodd" clip-rule="evenodd" d="M11.31.11C4.61.113.058 6.345 0 12.485v.231c.047 5.118 3.245 10.117 10.957 11.331-.239.659-.535 1.907-.538 3.027h.02c-.206 5.62 5.676 10.227 11.218 8.68A19.892 19.892 0 0123.919 45l3-.052c.051-4.448-1.47-9.111-3.947-12.887-9.704 4.873-13.736-9.927-3.553-10.961v-2.988a8.986 8.986 0 00-6.64 2.934c-18.48-.804-7.613-26.582 5.705-14.993a8.848 8.848 0 00-.565 3.097h3c1.153-10.832 17.403-5.513 10.03 5.364 10.516-3.523 16.122 5.076 13.14 11.854-3.4 7.197-13.283 6.488-16.305.068l-2.71 1.281c1.503 3.15 4.323 5.445 7.61 6.37-1.724 3.152-2.795 7.165-2.765 10.913l3-.052c-.014-3.46 1.028-7.333 2.949-10.404h.01a.194.194 0 01.04 0v-.003c16.575-.996 15.261-23.525-.134-23.896C36.79 5.4 32.328.06 26.919.197v-.01a8.993 8.993 0 00-6.864 3.18C16.913 1.072 13.957.112 11.331.11h-.02z" fill="url(#paint0_linear)"/></g><mask id="b" maskUnits="userSpaceOnUse" x="5" y="7" width="6" height="11"><path fill-rule="evenodd" clip-rule="evenodd" d="M10.921 18v-2.75c-3.993-.23-3.632-5.39 0-5.5V7c-8.047.462-7.334 10.83 0 11z" fill="#fff"/></mask><g mask="url(#b)"><path fill-rule="evenodd" clip-rule="evenodd" d="M10.921 18v-2.75c-3.993-.23-3.632-5.39 0-5.5V7c-8.047.462-7.334 10.83 0 11z" fill="url(#paint1_linear)"/></g><mask id="c" maskUnits="userSpaceOnUse" x="37" y="17" width="6" height="11"><path fill-rule="evenodd" clip-rule="evenodd" d="M37.103 19.75c3.994.23 3.633 5.39 0 5.5V28c8.047-.462 7.335-10.83 0-11v2.75z" fill="#fff"/></mask><g mask="url(#c)"><path fill-rule="evenodd" clip-rule="evenodd" d="M37.103 19.75c3.994.23 3.633 5.39 0 5.5V28c8.047-.462 7.335-10.83 0-11v2.75z" fill="url(#paint2_linear)"/></g><defs><linearGradient id="paint0_linear" x1="73.32" y1="92.801" x2="73.32" y2=".109" gradientUnits="userSpaceOnUse"><stop stop-color="#9E2FFF"/><stop offset="1" stop-color="#0BB1D3"/></linearGradient><linearGradient id="paint1_linear" x1="30.419" y1="86.75" x2="30.419" y2="1.429" gradientUnits="userSpaceOnUse"><stop stop-color="#9E2FFF"/><stop offset="1" stop-color="#0BB1D3"/></linearGradient><linearGradient id="paint2_linear" x1="62.372" y1="87.125" x2="62.372" y2="1.804" gradientUnits="userSpaceOnUse"><stop stop-color="#9E2FFF"/><stop offset="1" stop-color="#0BB1D3"/></linearGradient></defs></svg>