<svg width="20" height="20" viewBox="0 0 20 20" fill="none" xmlns="http://www.w3.org/2000/svg">
<g clip-path="url(#clip0)">
<circle cx="10" cy="10" r="10" stroke="#A1A1A1"/>
<path d="M6.608 5.512C6.784 5.352 6.976 5.20267 7.184 5.064C7.392 4.92533 7.616 4.80267 7.856 4.696C8.10133 4.58933 8.36533 4.50667 8.648 4.448C8.936 4.384 9.24533 4.352 9.576 4.352C10.0187 4.352 10.424 4.416 10.792 4.544C11.1653 4.66667 11.4853 4.84533 11.752 5.08C12.024 5.30933 12.2347 5.58933 12.384 5.92C12.5333 6.24533 12.608 6.61067 12.608 7.016C12.608 7.42133 12.5493 7.77333 12.432 8.072C12.3147 8.36533 12.1653 8.62133 11.984 8.84C11.8027 9.05867 11.6053 9.25067 11.392 9.416C11.1787 9.576 10.976 9.728 10.784 9.872C10.5973 10.0107 10.4347 10.152 10.296 10.296C10.1627 10.4347 10.0827 10.5893 10.056 10.76L9.888 11.96H8.72L8.6 10.64C8.57333 10.3893 8.61333 10.1733 8.72 9.992C8.82667 9.81067 8.968 9.64 9.144 9.48C9.32533 9.32 9.52267 9.168 9.736 9.024C9.95467 8.87467 10.1573 8.70933 10.344 8.528C10.5307 8.34667 10.688 8.144 10.816 7.92C10.944 7.696 11.008 7.42667 11.008 7.112C11.008 6.904 10.968 6.71733 10.888 6.552C10.808 6.38133 10.696 6.23733 10.552 6.12C10.408 6.00267 10.24 5.912 10.048 5.848C9.856 5.784 9.648 5.752 9.424 5.752C9.10933 5.752 8.84267 5.78933 8.624 5.864C8.40533 5.93867 8.21867 6.02133 8.064 6.112C7.90933 6.19733 7.78133 6.27733 7.68 6.352C7.57867 6.42133 7.49333 6.456 7.424 6.456C7.25867 6.456 7.136 6.384 7.056 6.24L6.608 5.512ZM8.144 15.008C8.144 14.8533 8.17067 14.7093 8.224 14.576C8.28267 14.4373 8.36 14.3173 8.456 14.216C8.55733 14.1147 8.67467 14.0347 8.808 13.976C8.94667 13.9173 9.09333 13.888 9.248 13.888C9.40267 13.888 9.54667 13.9173 9.68 13.976C9.81867 14.0347 9.93867 14.1147 10.04 14.216C10.1413 14.3173 10.2213 14.4373 10.28 14.576C10.3387 14.7093 10.368 14.8533 10.368 15.008C10.368 15.168 10.3387 15.3147 10.28 15.448C10.2213 15.5813 10.1413 15.6987 10.04 15.8C9.93867 15.9013 9.81867 15.9787 9.68 16.032C9.54667 16.0907 9.40267 16.12 9.248 16.12C9.09333 16.12 8.94667 16.0907 8.808 16.032C8.67467 15.9787 8.55733 15.9013 8.456 15.8C8.36 15.6987 8.28267 15.5813 8.224 15.448C8.17067 15.3147 8.144 15.168 8.144 15.008Z" fill="#A1A1A1"/>
</g>
<defs>
<clipPath id="clip0">
<rect width="20" height="20" fill="white"/>
</clipPath>
</defs>
</svg>
