<svg width="61" height="60" viewBox="0 0 61 60" fill="none" xmlns="http://www.w3.org/2000/svg">
<mask id="mask0" mask-type="alpha" maskUnits="userSpaceOnUse" x="0" y="0" width="61" height="60">
<path fill-rule="evenodd" clip-rule="evenodd" d="M0 0H61V59.9748H0V0Z" fill="white"/>
</mask>
<g mask="url(#mask0)">
<path fill-rule="evenodd" clip-rule="evenodd" d="M58.8819 26.0171C58.8819 26.0574 58.8493 26.0901 58.8091 26.0901H53.1494C52.5645 26.0901 52.0903 26.5653 52.0903 27.1514C52.0903 27.7375 52.5645 28.2127 53.1494 28.2127H56.6182V30.5546C56.6182 30.595 56.5855 30.6276 56.5453 30.6276H47.4901C47.4498 30.6276 47.4172 30.595 47.4172 30.5546V28.2127H48.6217C49.2065 28.2127 49.6807 27.7375 49.6807 27.1514C49.6807 26.5653 49.2065 26.0901 48.6217 26.0901H28.2248C23.896 26.0901 20.3743 29.6195 20.3743 33.9576V57.852H2.11806V21.4797C2.11806 20.1884 3.16621 19.138 4.45469 19.138H55.4133C57.3259 19.138 58.8818 20.6975 58.8818 22.6141V26.0171H58.8819ZM6.64561 14.6005H12.3786C12.9635 14.6005 13.4377 14.1253 13.4377 13.5392C13.4377 12.9531 12.9635 12.4779 12.3786 12.4779H4.45469C4.41445 12.4779 4.38183 12.4452 4.38183 12.4049V5.59868C4.38183 3.68193 5.9379 2.12264 7.85036 2.12264H42.9395C43.6038 2.12264 44.1442 2.66434 44.1442 3.33C44.1442 3.99566 43.6037 4.53736 42.9395 4.53736H21.4335C20.8486 4.53736 20.3744 5.01255 20.3744 5.59868V12.4049C20.3744 12.4452 20.3418 12.4779 20.3016 12.4779H16.9056C16.3207 12.4779 15.8466 12.9531 15.8466 13.5392C15.8466 14.1253 16.3207 14.6005 16.9056 14.6005H18.1106V17.0152H6.64561V14.6005ZM55.4134 17.0154H20.2286V14.6007H20.3014C21.5096 14.6007 22.4923 13.6158 22.4923 12.405V6.66H42.9395C44.7717 6.66 46.2623 5.16608 46.2623 3.33C46.2623 1.49391 44.7716 0 42.9395 0H7.85036C4.76986 0 2.26378 2.51165 2.26378 5.59868V12.4049C2.26378 13.6156 3.24656 14.6005 4.45469 14.6005H4.52756V17.0152H4.45469C1.99831 17.0154 0 19.018 0 21.4797V58.9135C0 59.4996 0.474162 59.9748 1.05903 59.9748H21.4335C22.0183 59.9748 22.4925 59.4996 22.4925 58.9135V33.9577C22.4925 30.79 25.0639 28.2129 28.2249 28.2129H45.2991V30.5547C45.2991 31.7655 46.2819 32.7504 47.4901 32.7504H56.5453C57.7534 32.7504 58.7362 31.7655 58.7362 30.5547V28.2129H58.8091C60.0172 28.2129 61 27.228 61 26.0172V22.6142C61 19.5269 58.4938 17.0154 55.4134 17.0154V17.0154Z" fill="black"/>
</g>
</svg>
