<svg width="36" height="60" viewBox="0 0 36 60" fill="none" xmlns="http://www.w3.org/2000/svg">
<mask id="mask0" mask-type="alpha" maskUnits="userSpaceOnUse" x="0" y="0" width="36" height="60">
<path fill-rule="evenodd" clip-rule="evenodd" d="M0 0.116699H35.9065V59.9996H0V0.116699Z" fill="white"/>
</mask>
<g mask="url(#mask0)">
<path fill-rule="evenodd" clip-rule="evenodd" d="M33.9116 47.0251C33.9116 48.6759 32.5691 50.0193 30.9193 50.0193H28.9247H22.9403H12.9662H6.98178H4.98705C3.33736 50.0193 1.99484 48.6759 1.99484 47.0251V46.027H33.9118V47.0251H33.9116ZM23.9377 54.0114H27.9272V52.0154H23.9377V54.0114ZM7.97926 54.0114H11.9688V52.0154H7.97926V54.0114ZM1.99484 7.10301H33.9118V44.031H33.9116H1.99484V7.10301ZM4.98705 2.11284H30.9194C32.5692 2.11284 33.9118 3.45623 33.9118 5.10699H1.99484C1.99484 3.45623 3.33736 2.11284 4.98705 2.11284V2.11284ZM24.9351 58.0036H26.9299V56.0075H24.9351V58.0036ZM8.97662 58.0036H10.9715V56.0075H8.97662V58.0036ZM30.9193 0.116699H4.98705C2.23714 0.116699 0 2.3553 0 5.10699V6.105V45.029V47.0251C0 49.7767 2.23714 52.0154 4.98705 52.0154H5.98442V55.0094C5.98442 55.5603 6.43126 56.0075 6.98178 56.0075H6.9819V59.0016C6.9819 59.5525 7.42874 59.9996 7.97926 59.9996H11.9688C12.5194 59.9996 12.9662 59.5525 12.9662 59.0016V56.0075C13.5167 56.0075 13.9636 55.5603 13.9636 55.0094V52.0154H21.9429V55.0094C21.9429 55.5603 22.3898 56.0075 22.9403 56.0075V59.0016C22.9403 59.5525 23.3871 59.9996 23.9377 59.9996H27.9272C28.4778 59.9996 28.9246 59.5525 28.9246 59.0016V56.0075H28.9247C29.4752 56.0075 29.9221 55.5603 29.9221 55.0094V52.0154H30.9194C33.6694 52.0154 35.9065 49.7768 35.9065 47.0251V5.10699C35.9064 2.3553 33.6694 0.116699 30.9193 0.116699V0.116699Z" fill="black"/>
</g>
<path fill-rule="evenodd" clip-rule="evenodd" d="M17.9534 11.0956C19.0537 11.0956 19.9483 11.9908 19.9483 13.0918C19.9483 13.8288 19.5461 14.4722 18.9508 14.818V14.0898C18.9508 13.5389 18.504 13.0918 17.9534 13.0918C17.4029 13.0918 16.9561 13.5389 16.9561 14.0898V14.818C16.3608 14.4722 15.9586 13.8288 15.9586 13.0918C15.9586 11.991 16.8532 11.0956 17.9534 11.0956M17.9534 17.0839C20.1536 17.0839 21.943 15.2934 21.943 13.0918C21.943 10.8901 20.1538 9.09961 17.9534 9.09961C15.7531 9.09961 13.9639 10.8901 13.9639 13.0918C13.9639 15.2934 15.7532 17.0839 17.9534 17.0839" fill="black"/>
<path fill-rule="evenodd" clip-rule="evenodd" d="M23.9377 38.043C23.9377 38.5929 23.4899 39.041 22.9403 39.041H20.3608L21.6506 37.7505C22.0407 37.3603 22.0407 36.7295 21.6506 36.3392C21.2606 35.9491 20.6302 35.9491 20.2403 36.3392L17.5403 39.041H12.9663C12.4167 39.041 11.969 38.5929 11.969 38.043V35.0487C11.969 34.4989 12.4167 34.0508 12.9663 34.0508H22.9403C23.4899 34.0508 23.9377 34.4989 23.9377 35.0487V38.043ZM22.9403 32.0547H12.9663C11.3166 32.0547 9.97412 33.3981 9.97412 35.0487V38.043C9.97412 39.6938 11.3166 41.0371 12.9663 41.0371H22.9403C24.59 41.0371 25.9324 39.6938 25.9324 38.043V35.0487C25.9324 33.3981 24.59 32.0547 22.9403 32.0547V32.0547Z" fill="black"/>
</svg>
