<svg width="48" height="60" viewBox="0 0 48 60" fill="none" xmlns="http://www.w3.org/2000/svg">
<g opacity="0.749233">
<mask id="mask0" mask-type="alpha" maskUnits="userSpaceOnUse" x="0" y="0" width="48" height="60">
<path fill-rule="evenodd" clip-rule="evenodd" d="M0 0H47.8908V59.8821H0V0Z" fill="white"/>
</mask>
<g mask="url(#mask0)">
<path fill-rule="evenodd" clip-rule="evenodd" d="M45.9756 4.77149H44.0604V2.85149C44.0604 2.32681 44.4894 1.90099 45.018 1.90099C45.5466 1.90099 45.9756 2.32681 45.9756 2.85149V4.77149ZM44.0604 53.2277H45.9756V6.67248H44.0604V53.2277ZM45.9756 57.0297C45.9756 57.5543 45.5466 57.9802 45.018 57.9802C44.7623 57.9802 44.522 57.8813 44.341 57.7017C44.1763 57.5373 44.0901 57.3234 44.0748 57.0943C44.0757 57.0772 44.0853 57.0638 44.0853 57.0459C44.0853 57.0031 44.0662 56.967 44.0614 56.9261V55.1287H45.9766V57.0297H45.9756ZM42.1452 21.0211C40.931 19.7922 39.2447 19.0261 37.3773 19.0261H10.708C10.6467 19.0128 10.5882 18.989 10.5231 18.989C9.47838 18.989 8.62803 18.145 8.62803 17.108C8.62803 16.0719 9.47838 15.2288 10.5231 15.2288H37.3773C37.4778 15.2288 37.5707 15.2013 37.6626 15.1718C39.4142 15.0977 40.9942 14.3572 42.1452 13.191V21.0211ZM42.1452 38.1244C40.931 36.8952 39.2447 36.1293 37.3773 36.1293C37.3706 36.1293 37.3648 36.1329 37.3581 36.1329H10.7271C10.6601 36.1179 10.595 36.0922 10.5231 36.0922C9.47838 36.0922 8.62803 35.2482 8.62803 34.2112C8.62803 33.1789 9.47168 32.3406 10.5107 32.333C10.5155 32.333 10.5183 32.3358 10.5231 32.3358H37.3773C37.4864 32.3358 37.589 32.3083 37.6866 32.2741C39.4285 32.1942 40.9989 31.4557 42.1442 30.2951V38.1244H42.1452ZM42.1452 53.241H10.7463C10.6735 53.223 10.6026 53.1964 10.5241 53.1964C9.47934 53.1964 8.62899 52.3523 8.62899 51.3153C8.62899 50.2878 9.46593 49.4524 10.4992 49.4391C10.5078 49.4391 10.5155 49.4438 10.5231 49.4438H37.3773C37.496 49.4438 37.6061 49.4162 37.7124 49.3773C39.4447 49.2916 41.0047 48.554 42.1452 47.3993V53.241ZM42.1452 56.0963H10.7836C10.6993 56.0726 10.616 56.0439 10.5241 56.0439C7.89546 56.0439 5.75617 53.9216 5.75617 51.3114C5.75617 48.7119 7.88206 46.5971 10.4992 46.5836C10.5078 46.5836 10.5155 46.5884 10.5231 46.5884H37.3773C37.5191 46.5884 37.6512 46.5533 37.7728 46.4982C39.6842 46.2986 41.1848 44.7074 41.1848 42.758C41.1848 40.6736 39.4763 38.976 37.3763 38.976C37.3562 38.976 37.3399 38.9865 37.3198 38.9874H10.7644C10.6859 38.9674 10.6093 38.9389 10.5231 38.9389C7.8945 38.9389 5.75521 36.8164 5.75521 34.2064C5.75521 31.6021 7.8878 29.4844 10.5107 29.4768C10.5155 29.4768 10.5183 29.4796 10.5231 29.4796H37.3773C37.5171 29.4796 37.6464 29.4473 37.7661 29.3941C39.6813 29.1973 41.1848 27.6043 41.1848 25.6529C41.1848 23.5685 39.4763 21.8709 37.3763 21.8709C37.3629 21.8709 37.3524 21.8775 37.339 21.8785H10.7463C10.6735 21.8604 10.6026 21.8338 10.5241 21.8338C7.89546 21.8338 5.75617 19.7114 5.75617 17.1013C5.75617 14.4931 7.8945 12.3707 10.5241 12.3707H37.3782C37.5152 12.3707 37.6435 12.3412 37.7603 12.2899C39.6784 12.096 41.1857 10.502 41.1857 8.5478C41.1857 6.51184 39.554 4.85893 37.5228 4.78099C37.473 4.77244 37.428 4.75152 37.3763 4.75152H5.74468V3.80198H37.2662C37.3045 3.80673 37.338 3.82384 37.3773 3.82384C40.0049 3.82384 42.1433 5.9463 42.1433 8.55636C42.1433 11.1645 40.0059 13.287 37.3773 13.287C37.3016 13.287 37.2346 13.3126 37.1637 13.3297H10.5231C8.4231 13.3297 6.71282 15.0254 6.71282 17.1099C6.71282 19.0688 8.22679 20.6647 10.1506 20.8539C10.2655 20.9014 10.391 20.928 10.5231 20.928H37.3773C40.0049 20.928 42.1433 23.0505 42.1433 25.6605C42.1433 28.2687 40.0059 30.391 37.3773 30.391C37.2949 30.391 37.2212 30.4177 37.1455 30.4377H10.5423C10.5356 30.4377 10.5298 30.4339 10.5231 30.4339C8.4231 30.4339 6.71282 32.1296 6.71282 34.214C6.71282 36.1701 8.22296 37.7651 10.143 37.9571C10.2598 38.0074 10.3881 38.036 10.5222 38.036H37.3763C37.3811 38.036 37.384 38.0331 37.3888 38.0331C40.0107 38.0407 42.1423 40.1594 42.1423 42.7647C42.1423 45.3728 40.0049 47.4953 37.3763 47.4953C37.2873 47.4953 37.2068 47.5229 37.1254 47.5457H10.5605C10.5471 47.5447 10.5365 47.5381 10.5231 47.5381C8.4231 47.5381 6.71282 49.2337 6.71282 51.3182C6.71282 53.2724 8.21913 54.8654 10.1363 55.0612C10.255 55.1134 10.3843 55.1449 10.5222 55.1449H42.1433V56.0963H42.1452ZM5.74468 38.8353C6.88806 39.9996 8.45853 40.7419 10.2014 40.8257C10.3019 40.8618 10.4092 40.8893 10.5231 40.8893H37.3773C37.3907 40.8893 37.4012 40.8827 37.4146 40.8817C38.4402 40.9017 39.2705 41.7343 39.2705 42.759C39.2705 43.795 38.4211 44.638 37.3773 44.638C37.2882 44.638 37.2078 44.6657 37.1264 44.6885H10.5605C10.5471 44.6874 10.5365 44.6809 10.5231 44.6809C8.65101 44.6809 6.95892 45.4517 5.74468 46.6855V38.8353ZM5.74468 21.7321C6.89381 22.9012 8.47386 23.6464 10.2263 23.7234C10.322 23.7548 10.4178 23.7833 10.5241 23.7833H37.3782C37.3869 23.7833 37.3945 23.7785 37.4022 23.7785C38.4345 23.7918 39.2705 24.6283 39.2705 25.6567C39.2705 26.6928 38.4211 27.5358 37.3773 27.5358C37.2949 27.5358 37.2212 27.5625 37.1455 27.5824H10.5423C10.5356 27.5824 10.5298 27.5786 10.5231 27.5786C8.65101 27.5786 6.95892 28.3495 5.74468 29.5832V21.7321ZM5.74468 6.65727H37.3035C37.3295 6.65917 37.3514 6.67248 37.3773 6.67248C38.4211 6.67248 39.2705 7.51651 39.2705 8.5535C39.2705 9.58954 38.4211 10.4326 37.3773 10.4326C37.3016 10.4326 37.2347 10.4583 37.1637 10.4754H10.5231C8.65101 10.4754 6.95892 11.2463 5.74468 12.48V6.65727ZM3.82947 4.75628H1.91425V2.85149C1.91425 2.32681 2.34326 1.90099 2.87186 1.90099C3.38705 1.90099 3.8017 2.30875 3.82181 2.81442C3.82085 2.82772 3.81414 2.83818 3.81414 2.85149C3.81414 2.87715 3.82755 2.89996 3.82947 2.92467V4.75628ZM1.91425 53.2277H3.82947V6.65727H1.91425V53.2277ZM3.82947 57.0297C3.82947 57.5543 3.40046 57.9802 2.87186 57.9802C2.34326 57.9802 1.91425 57.5543 1.91425 57.0297V55.1287H3.82947V57.0297ZM45.018 0C43.4343 0 42.1452 1.27937 42.1452 2.85149V3.91794C40.9645 2.72127 39.3318 1.96943 37.5239 1.93046C37.4741 1.9219 37.428 1.90099 37.3754 1.90099H5.56848C5.17203 0.797465 4.11866 0 2.87282 0C1.28894 0 0 1.27937 0 2.85149V57.0297C0 58.6018 1.28894 59.8812 2.87282 59.8812C4.4567 59.8812 5.74564 58.6018 5.74564 57.0297V55.9395C6.88423 57.0981 8.44417 57.8386 10.1774 57.9279C10.2856 57.9696 10.4006 57.9973 10.5241 57.9973H42.3262C42.467 58.3851 42.6843 58.7434 42.986 59.0448C43.528 59.5846 44.25 59.8821 45.018 59.8821C46.6019 59.8821 47.8908 58.6028 47.8908 57.0307V2.85244C47.8908 1.27937 46.6019 0 45.018 0V0Z" fill="black"/>
</g>
</g>
</svg>
