<svg width="60" height="60" viewBox="0 0 60 60" fill="none" xmlns="http://www.w3.org/2000/svg">
<path fill-rule="evenodd" clip-rule="evenodd" d="M7.91016 24.6094H6.73828H1.9084C2.27109 23.5863 3.24867 22.8516 4.39453 22.8516H55.6055C56.7513 22.8516 57.7289 23.5863 58.0916 24.6094H7.91016ZM54.7266 30.7616C54.7266 36.0926 50.3896 40.4296 45.0586 40.4296H14.9414C9.61043 40.4296 5.27344 36.0926 5.27344 30.7616V26.3672H6.73828H7.91016H54.7266V30.7616ZM32.6367 45.703H34.3945V42.1874H32.6367V45.703ZM29.1211 45.703H30.8789V42.1874H29.1211V45.703ZM32.6367 55.6055C32.6367 57.0593 31.4539 58.2422 30 58.2422C28.5461 58.2422 27.3633 57.0593 27.3633 55.6055V47.4608H32.6367V55.6055ZM25.6055 45.703H27.3633V42.1874H25.6055V45.703ZM20.918 21.0938H23.8477V17.5781H20.918V21.0938ZM29.1211 7.91016C29.1211 4.51781 31.881 1.75781 35.2734 1.75781C38.3674 1.75781 40.9341 4.05387 41.362 7.03125H39.5796C39.1712 5.02781 37.3957 3.51562 35.2734 3.51562C32.8502 3.51562 30.8789 5.48695 30.8789 7.91016V21.0938H29.1211V7.91016ZM39.668 10.5469H41.4258V8.78906H39.668V10.5469ZM36.1523 21.0938H39.082V17.5781H36.1523V21.0938ZM55.6055 21.0938H40.8398V17.5781H44.0625C44.5479 17.5781 44.9414 17.1847 44.9414 16.6992C44.9414 16.2137 44.5479 15.8203 44.0625 15.8203H35.2734C34.788 15.8203 34.3945 16.2137 34.3945 16.6992V21.0938H32.6367V7.91016C32.6367 6.45633 33.8195 5.27344 35.2734 5.27344C36.7274 5.27344 37.9102 6.45633 37.9102 7.91016V11.4258C37.9102 11.9113 38.3037 12.3047 38.7891 12.3047H42.3047C42.7901 12.3047 43.1836 11.9113 43.1836 11.4258V7.91016C43.1836 3.54844 39.6352 0 35.2734 0C30.9117 0 27.3633 3.54844 27.3633 7.91016V21.0938H25.6055V16.6992C25.6055 16.2137 25.212 15.8203 24.7266 15.8203H15.9375C15.4521 15.8203 15.0586 16.2137 15.0586 16.6992C15.0586 17.1847 15.4521 17.5781 15.9375 17.5781H19.1602V21.0938H4.39453C1.97133 21.0938 0 23.0651 0 25.4883C0 25.9738 0.393516 26.3672 0.878906 26.3672H3.51562V30.7616C3.51562 37.062 8.64117 42.1874 14.9414 42.1874H23.8477V46.5819C23.8477 47.0675 24.2412 47.4608 24.7266 47.4608H25.6055V55.6055C25.6055 58.0287 27.5768 60 30 60C32.4232 60 34.3945 58.0287 34.3945 55.6055V47.4608H35.2734C35.7588 47.4608 36.1523 47.0675 36.1523 46.5819V42.1874H45.0586C51.3588 42.1874 56.4844 37.062 56.4844 30.7616V26.3672H59.1211C59.6065 26.3672 60 25.9738 60 25.4883C60 23.0651 58.0287 21.0938 55.6055 21.0938V21.0938Z" fill="black"/>
</svg>
