<svg width="37" height="62" viewBox="0 0 37 62" fill="none" xmlns="http://www.w3.org/2000/svg">
<g id="Group 3">
<g id="Fill 1">
<path fill-rule="evenodd" clip-rule="evenodd" d="M36.6474 4.60358L36.6307 5.7876V7.51391C36.6307 10.6785 36.6301 13.8432 36.6296 17.0078C36.6274 30.0383 36.6252 43.0687 36.6604 56.0991C36.6634 57.242 36.2968 57.7857 35.2707 58.2061C31.3436 59.8144 27.2311 60.6234 23.0352 60.8718C16.1044 61.2821 9.26722 60.7815 2.67958 58.2828C1.41086 57.8016 0.995367 57.2176 1.00004 55.8496C1.05555 39.6546 1.04098 23.4596 1.01735 7.26467C1.01723 7.16502 1.01678 7.0844 1.01639 7.01523C1.01411 6.60948 1.01405 6.59768 1.09622 5.45017L1.09921 5.41406C1.11361 5.24531 1.1684 4.60323 1.10858 4.3034C2.77795 3.95321 4.32411 3.61628 5.82092 3.29011C9.21866 2.54971 12.3621 1.86472 16.1151 1.20573C19.4334 0.623266 22.7162 1.38642 25.9609 2.14074C26.1963 2.19548 26.4316 2.25017 26.6666 2.3043C29.1896 2.88517 31.1742 3.34246 33.3514 3.84413L33.3615 3.84648L33.364 3.84705L36.6474 4.60358ZM25.1355 3.67976C18.8127 0.736291 11.9739 3.6447 11.9739 3.6447V54.5363C18.6836 56.5732 25.1355 54.5363 25.1355 54.5363V3.67976ZM3.87604 4.92129C5.40823 4.74398 6.92394 4.42641 8.48662 4.09899L8.48664 4.09899C9.16156 3.95758 9.84525 3.81433 10.5428 3.67976V54.6423C10.0226 54.5283 9.5153 54.4221 9.01772 54.318L9.01708 54.3179C7.95268 54.0952 6.93268 53.8818 5.92518 53.6204C2.30228 52.6806 2.30228 52.6602 2.30229 48.9677V48.9525C2.30229 45.9803 2.30293 43.0082 2.30358 40.036C2.30597 29.0047 2.30835 17.9734 2.27783 6.94203C2.27453 5.71529 2.45975 5.08535 3.87604 4.92129ZM33.5489 57.4795C32.7395 57.6678 31.932 57.8727 31.1243 58.0776C29.1053 58.5897 27.0853 59.1021 25.0338 59.3583C18.6902 60.1504 12.3694 59.8938 6.18018 58.0823C5.81981 57.9769 5.46462 57.8541 5.10945 57.7314L5.10937 57.7313L5.10903 57.7312L5.10866 57.7311L5.10824 57.7309C4.94708 57.6752 4.78593 57.6195 4.6243 57.5655C3.35923 57.1427 2.70592 56.9244 2.4205 56.4733C2.1157 55.9915 2.23044 55.2444 2.46771 53.6993C13.2276 56.9536 24.0132 57.5893 34.9528 53.5642C34.9775 53.8471 34.992 54.0873 35.0047 54.2986L35.0048 54.2988C35.0282 54.6881 35.0458 54.9795 35.1108 55.2602C35.4199 56.5978 34.7022 57.2111 33.5489 57.4795ZM28.3181 3.99174L28.3182 3.99176C30.4257 4.41446 32.4845 4.8274 34.5348 5.27899C34.7739 5.33157 34.9957 5.76021 35.0957 6.05765C35.1641 6.26113 35.1498 6.49267 35.1355 6.72362C35.1296 6.81939 35.1237 6.91506 35.1237 7.00859C35.1238 10.0696 35.1232 13.1307 35.1227 16.1917C35.1206 27.7751 35.1185 39.3586 35.1495 50.942C35.1528 52.1491 34.8459 52.7204 33.5934 52.959C32.3759 53.1906 31.1773 53.5193 29.9782 53.848C29.3313 54.0254 28.6842 54.2029 28.034 54.3651C27.7492 54.4361 27.4526 54.4603 27.1191 54.4875L27.1189 54.4875C26.9534 54.501 26.7787 54.5152 26.5919 54.5363V3.6447C27.1709 3.76163 27.7455 3.87688 28.3165 3.99141L28.3181 3.99174ZM29.5 25H31V37H29.5V25ZM7 25H5.5V37H7V25Z" fill="black"/>
<path d="M36.6307 5.7876L36.3807 5.78406V5.7876H36.6307ZM36.6474 4.60358L36.8974 4.60712L36.9003 4.40529L36.7036 4.35996L36.6474 4.60358ZM36.6296 17.0078L36.8796 17.0078L36.6296 17.0078ZM36.6604 56.0991L36.9104 56.0984V56.0984L36.6604 56.0991ZM35.2707 58.2061L35.3655 58.4374L35.3655 58.4374L35.2707 58.2061ZM23.0352 60.8718L23.05 61.1214H23.05L23.0352 60.8718ZM2.67958 58.2828L2.76824 58.049H2.76824L2.67958 58.2828ZM1.00004 55.8496L0.75004 55.8487L0.75004 55.8487L1.00004 55.8496ZM1.01735 7.26467L0.767351 7.26497L0.767351 7.26504L1.01735 7.26467ZM1.01639 7.01523L0.766394 7.01663L1.01639 7.01523ZM1.09622 5.45017L0.847054 5.42954L0.846855 5.43231L1.09622 5.45017ZM1.09921 5.41406L0.85011 5.39281L0.850058 5.39344L1.09921 5.41406ZM1.10858 4.3034L1.05726 4.05873L0.814983 4.10955L0.863414 4.35231L1.10858 4.3034ZM5.82092 3.29011L5.76769 3.04585L5.82092 3.29011ZM16.1151 1.20573L16.0719 0.959499L16.0719 0.959501L16.1151 1.20573ZM25.9609 2.14074L25.9042 2.38424L25.9609 2.14074ZM26.6666 2.3043L26.6105 2.54792L26.6106 2.54792L26.6666 2.3043ZM33.3514 3.84413L33.2952 4.08775L33.2952 4.08776L33.3514 3.84413ZM33.3615 3.84648L33.4177 3.60287L33.4176 3.60285L33.3615 3.84648ZM33.364 3.84705L33.3078 4.09065L33.3079 4.09067L33.364 3.84705ZM11.9739 3.6447L11.8761 3.41464L11.7239 3.47935V3.6447H11.9739ZM25.1355 3.67976H25.3855V3.52038L25.241 3.45312L25.1355 3.67976ZM11.9739 54.5363H11.7239V54.7216L11.9013 54.7755L11.9739 54.5363ZM25.1355 54.5363L25.2108 54.7747L25.3855 54.7195V54.5363H25.1355ZM8.48662 4.09899L8.53789 4.3437L8.54085 4.34304L8.48662 4.09899ZM3.87604 4.92129L3.8473 4.67295L3.84727 4.67295L3.87604 4.92129ZM8.48664 4.09899L8.43536 3.85429L8.4324 3.85494L8.48664 4.09899ZM10.5428 3.67976H10.7928V3.37692L10.4955 3.43429L10.5428 3.67976ZM10.5428 54.6423L10.4893 54.8865L10.7928 54.953V54.6423H10.5428ZM9.01772 54.318L8.96511 54.5624L8.96653 54.5627L9.01772 54.318ZM9.01708 54.3179L9.06969 54.0735L9.06828 54.0732L9.01708 54.3179ZM5.92518 53.6204L5.98797 53.3784L5.98795 53.3784L5.92518 53.6204ZM2.30229 48.9677H2.55229H2.30229ZM2.30358 40.036L2.55358 40.036L2.30358 40.036ZM2.27783 6.94203L2.02783 6.9427V6.94272L2.27783 6.94203ZM31.1243 58.0776L31.1858 58.3199L31.1243 58.0776ZM33.5489 57.4795L33.4922 57.236H33.4922L33.5489 57.4795ZM25.0338 59.3583L25.0648 59.6064H25.0648L25.0338 59.3583ZM6.18018 58.0823L6.25041 57.8424L6.25038 57.8424L6.18018 58.0823ZM5.10945 57.7314L5.0165 57.9637L5.02778 57.9676L5.10945 57.7314ZM5.10937 57.7313L5.20232 57.4989L5.19086 57.495L5.10937 57.7313ZM5.10903 57.7312L5.19054 57.4949L5.18836 57.4941L5.10903 57.7312ZM5.10866 57.7311L5.02527 57.9668L5.02933 57.9682L5.10866 57.7311ZM5.10824 57.7309L5.19161 57.4952L5.1899 57.4946L5.10824 57.7309ZM4.6243 57.5655L4.70361 57.3284L4.70354 57.3284L4.6243 57.5655ZM2.4205 56.4733L2.20924 56.6069H2.20924L2.4205 56.4733ZM2.46771 53.6993L2.54009 53.46L2.26434 53.3766L2.22061 53.6613L2.46771 53.6993ZM34.9528 53.5642L35.2018 53.5425L35.1733 53.2167L34.8665 53.3296L34.9528 53.5642ZM35.0047 54.2986L35.2545 54.2867L35.2543 54.2835L35.0047 54.2986ZM35.0048 54.2988L34.755 54.3107L34.7552 54.3139L35.0048 54.2988ZM35.1108 55.2602L35.3544 55.2039L35.3543 55.2037L35.1108 55.2602ZM28.3182 3.99176L28.3674 3.74664L28.3669 3.74654L28.3182 3.99176ZM28.3181 3.99174L28.2689 4.23685L28.2694 4.23695L28.3181 3.99174ZM34.5348 5.27899L34.481 5.52314L34.4811 5.52315L34.5348 5.27899ZM35.0957 6.05765L35.3327 5.97802L35.3326 5.97796L35.0957 6.05765ZM35.1355 6.72362L35.385 6.73902V6.73902L35.1355 6.72362ZM35.1237 7.00859H34.8737V7.00859L35.1237 7.00859ZM35.1227 16.1917L35.3727 16.1917V16.1917L35.1227 16.1917ZM35.1495 50.942L34.8995 50.9427V50.9427L35.1495 50.942ZM33.5934 52.959L33.6401 53.2046L33.6402 53.2045L33.5934 52.959ZM29.9782 53.848L30.0443 54.0891L29.9782 53.848ZM28.034 54.3651L28.0945 54.6077L28.0945 54.6077L28.034 54.3651ZM27.1191 54.4875L27.1342 54.7371L27.1394 54.7366L27.1191 54.4875ZM27.1189 54.4875L27.1038 54.2379L27.0986 54.2383L27.1189 54.4875ZM26.5919 54.5363H26.3419V54.8161L26.6199 54.7847L26.5919 54.5363ZM26.5919 3.6447L26.6414 3.39965L26.3419 3.33916V3.6447H26.5919ZM28.3165 3.99141L28.3657 3.7463L28.3657 3.74629L28.3165 3.99141ZM31 25H31.25V24.75H31V25ZM29.5 25V24.75H29.25V25H29.5ZM31 37V37.25H31.25V37H31ZM29.5 37H29.25V37.25H29.5V37ZM5.5 25V24.75H5.25V25H5.5ZM7 25H7.25V24.75H7V25ZM5.5 37H5.25V37.25H5.5V37ZM7 37V37.25H7.25V37H7ZM36.8807 5.79114L36.8974 4.60712L36.3975 4.60004L36.3807 5.78406L36.8807 5.79114ZM36.8807 7.51391V5.7876H36.3807V7.51391H36.8807ZM36.8796 17.0078C36.8801 13.8432 36.8807 10.6786 36.8807 7.51391H36.3807C36.3807 10.6785 36.3801 13.8431 36.3796 17.0077L36.8796 17.0078ZM36.9104 56.0984C36.8752 43.0684 36.8774 30.0384 36.8796 17.0078L36.3796 17.0077C36.3774 30.0382 36.3752 43.069 36.4104 56.0998L36.9104 56.0984ZM35.3655 58.4374C35.9015 58.2178 36.3014 57.9517 36.5599 57.5616C36.818 57.172 36.9119 56.6937 36.9104 56.0984L36.4104 56.0997C36.4118 56.6474 36.324 57.0123 36.143 57.2854C35.9625 57.558 35.666 57.7739 35.1759 57.9748L35.3655 58.4374ZM23.05 61.1214C27.2682 60.8717 31.4086 60.0579 35.3655 58.4374L35.176 57.9747C31.2787 59.5708 27.1939 60.3752 23.0205 60.6223L23.05 61.1214ZM2.59092 58.5165C9.22272 61.032 16.0982 61.5329 23.05 61.1214L23.0205 60.6223C16.1105 61.0313 9.31173 60.531 2.76824 58.049L2.59092 58.5165ZM0.75004 55.8487C0.747633 56.5537 0.852307 57.1026 1.15694 57.5413C1.46126 57.9796 1.93822 58.269 2.59092 58.5165L2.76824 58.049C2.15221 57.8154 1.78707 57.5722 1.56764 57.2561C1.34851 56.9406 1.24777 56.5135 1.25004 55.8504L0.75004 55.8487ZM0.767351 7.26504C0.790983 23.46 0.805547 39.6544 0.75004 55.8487L1.25004 55.8504C1.30555 39.6548 1.29098 23.4593 1.26735 7.26431L0.767351 7.26504ZM0.766394 7.01663C0.766782 7.08578 0.767232 7.16592 0.767351 7.26497L1.26735 7.26437C1.26723 7.16412 1.26677 7.08301 1.26639 7.01382L0.766394 7.01663ZM0.846855 5.43231C0.764742 6.57904 0.764056 6.59993 0.766394 7.01663L1.26639 7.01382C1.26417 6.61904 1.26335 6.61632 1.34558 5.46802L0.846855 5.43231ZM0.850058 5.39344L0.847069 5.42954L1.34536 5.47079L1.34835 5.43469L0.850058 5.39344ZM0.863414 4.35231C0.886887 4.46997 0.889966 4.67824 0.881893 4.89874C0.874112 5.11128 0.857282 5.30878 0.850111 5.39281L1.3483 5.43532C1.35553 5.35059 1.3733 5.14267 1.38156 4.91703C1.38953 4.69935 1.39009 4.43666 1.35375 4.25449L0.863414 4.35231ZM5.76769 3.04585C4.27078 3.37204 2.72553 3.70876 1.05726 4.05873L1.15991 4.54808C2.83036 4.19765 4.37743 3.86053 5.87415 3.53438L5.76769 3.04585ZM16.0719 0.959501C12.3132 1.61948 9.16514 2.30551 5.76769 3.04585L5.87415 3.53438C9.27217 2.79392 12.411 2.10996 16.1583 1.45197L16.0719 0.959501ZM26.0175 1.89723C22.7819 1.14503 19.4488 0.366748 16.0719 0.959499L16.1583 1.45197C19.4181 0.879784 22.6505 1.62782 25.9042 2.38424L26.0175 1.89723ZM26.7227 2.06067C26.488 2.00661 26.253 1.95198 26.0175 1.89723L25.9042 2.38424C26.1397 2.43897 26.3752 2.49372 26.6105 2.54792L26.7227 2.06067ZM33.4075 3.60052C31.2303 3.09884 29.2457 2.64155 26.7227 2.06067L26.6106 2.54792C29.1335 3.12879 31.118 3.58607 33.2952 4.08775L33.4075 3.60052ZM33.4176 3.60285L33.4075 3.60051L33.2952 4.08776L33.3054 4.0901L33.4176 3.60285ZM33.4202 3.60345L33.4177 3.60287L33.3053 4.09008L33.3078 4.09065L33.4202 3.60345ZM36.7036 4.35996L33.4201 3.60343L33.3079 4.09067L36.5913 4.8472L36.7036 4.35996ZM11.9739 3.6447C12.0718 3.87476 12.0717 3.87478 12.0717 3.87479C12.0717 3.87478 12.0717 3.87478 12.0718 3.87476C12.0719 3.87472 12.0721 3.87463 12.0724 3.8745C12.073 3.87424 12.0741 3.8738 12.0755 3.8732C12.0784 3.87199 12.0829 3.87011 12.089 3.86758C12.1013 3.86253 12.12 3.85491 12.1449 3.84498C12.1947 3.82513 12.2693 3.79608 12.3669 3.75994C12.5622 3.68766 12.8495 3.5871 13.2145 3.47529C13.9448 3.25159 14.9844 2.98329 16.2192 2.80589C18.6917 2.45068 21.9282 2.46241 25.03 3.9064L25.241 3.45312C22.02 1.95364 18.6758 1.94784 16.1481 2.31097C14.8829 2.49274 13.8177 2.76758 13.0681 2.99722C12.6931 3.11208 12.3968 3.21575 12.1934 3.29102C12.0917 3.32866 12.0132 3.35921 11.9597 3.38053C11.933 3.39119 11.9125 3.39954 11.8985 3.40531C11.8915 3.4082 11.8861 3.41044 11.8824 3.41201C11.8805 3.41279 11.879 3.41341 11.878 3.41385C11.8775 3.41407 11.877 3.41424 11.8767 3.41438C11.8766 3.41444 11.8764 3.41451 11.8763 3.41454C11.8762 3.4146 11.8761 3.41464 11.9739 3.6447ZM12.2239 54.5363V3.6447H11.7239V54.5363H12.2239ZM25.1355 54.5363C25.0602 54.2979 25.0603 54.2979 25.0603 54.2979C25.0603 54.2979 25.0603 54.2979 25.0602 54.2979C25.0601 54.2979 25.0599 54.298 25.0596 54.2981C25.059 54.2983 25.058 54.2986 25.0566 54.299C25.0539 54.2999 25.0496 54.3012 25.0437 54.303C25.0321 54.3065 25.0143 54.3119 24.9907 54.3189C24.9433 54.3328 24.8724 54.3532 24.7793 54.3786C24.5932 54.4294 24.3187 54.5001 23.9678 54.5788C23.266 54.7361 22.2596 54.9253 21.045 55.0514C18.614 55.3039 15.3594 55.3028 12.0466 54.2971L11.9013 54.7755C15.2981 55.8067 18.6243 55.8055 21.0967 55.5488C22.3338 55.4203 23.3597 55.2276 24.0772 55.0667C24.4361 54.9862 24.7181 54.9136 24.911 54.861C25.0074 54.8347 25.0817 54.8133 25.1321 54.7984C25.1574 54.791 25.1766 54.7852 25.1898 54.7811C25.1964 54.7791 25.2015 54.7776 25.205 54.7765C25.2067 54.7759 25.2081 54.7755 25.209 54.7752C25.2095 54.7751 25.2099 54.7749 25.2102 54.7749C25.2103 54.7748 25.2105 54.7748 25.2105 54.7747C25.2107 54.7747 25.2108 54.7747 25.1355 54.5363ZM24.8855 3.67976V54.5363H25.3855V3.67976H24.8855ZM8.43536 3.85431C6.87068 4.18214 5.36621 4.49717 3.8473 4.67295L3.90477 5.16963C5.45025 4.99079 6.9772 4.67068 8.53789 4.34368L8.43536 3.85431ZM8.4324 3.85494L8.43239 3.85495L8.54085 4.34304L8.54087 4.34304L8.4324 3.85494ZM10.4955 3.43429C9.79562 3.5693 9.11 3.71296 8.43537 3.8543L8.5379 4.34368C9.21312 4.20221 9.89488 4.05937 10.5902 3.92523L10.4955 3.43429ZM10.7928 54.6423V3.67976H10.2928V54.6423H10.7928ZM8.96653 54.5627C9.46427 54.6669 9.9704 54.7728 10.4893 54.8865L10.5963 54.3981C10.0747 54.2838 9.56633 54.1774 9.06891 54.0733L8.96653 54.5627ZM8.96448 54.5623L8.96512 54.5624L9.07033 54.0736L9.06969 54.0735L8.96448 54.5623ZM5.86238 53.8624C6.87663 54.1256 7.90253 54.3401 8.96589 54.5626L9.06828 54.0732C8.00283 53.8503 6.98872 53.6381 5.98797 53.3784L5.86238 53.8624ZM2.05229 48.9677C2.05229 49.8852 2.05196 50.5945 2.11028 51.1465C2.16885 51.701 2.28944 52.1336 2.55757 52.4795C2.82553 52.8251 3.21588 53.0519 3.74262 53.2502C4.26739 53.4477 4.96167 53.6287 5.8624 53.8624L5.98795 53.3784C5.07723 53.1422 4.41293 52.9682 3.91876 52.7822C3.42657 52.597 3.13762 52.4116 2.95272 52.1731C2.76799 51.9348 2.66215 51.6112 2.60751 51.094C2.55262 50.5744 2.55229 49.8963 2.55229 48.9677H2.05229ZM2.05229 48.9525V48.9677H2.55229V48.9525H2.05229ZM2.05358 40.0359C2.05293 43.0081 2.05229 45.9803 2.05229 48.9525H2.55229C2.55229 45.9804 2.55293 43.0082 2.55358 40.036L2.05358 40.0359ZM2.02783 6.94272C2.05835 17.9737 2.05597 29.0045 2.05358 40.0359L2.55358 40.036C2.55597 29.0048 2.55835 17.9732 2.52783 6.94134L2.02783 6.94272ZM3.84727 4.67295C3.11101 4.75824 2.62057 4.97237 2.33717 5.3936C2.06653 5.79585 2.0262 6.33398 2.02783 6.9427L2.52783 6.94136C2.52617 6.32334 2.57679 5.93314 2.75201 5.67271C2.91446 5.43127 3.22477 5.2484 3.9048 5.16963L3.84727 4.67295ZM31.1858 58.3199C31.9939 58.1149 32.799 57.9107 33.6055 57.723L33.4922 57.236C32.6801 57.425 31.8701 57.6305 31.0628 57.8352L31.1858 58.3199ZM25.0648 59.6064C27.1343 59.3479 29.1694 58.8313 31.1858 58.3199L31.0628 57.8352C29.0412 58.348 27.0363 58.8562 25.0028 59.1103L25.0648 59.6064ZM6.10996 58.3222C12.338 60.1451 18.6941 60.4019 25.0648 59.6064L25.0028 59.1103C18.6863 59.899 12.4007 59.6425 6.25041 57.8424L6.10996 58.3222ZM5.02778 57.9676C5.382 58.0901 5.74287 58.2148 6.10999 58.3222L6.25038 57.8424C5.89674 57.7389 5.54724 57.6182 5.19112 57.4951L5.02778 57.9676ZM5.01652 57.9634L5.0166 57.9635L5.2023 57.4992L5.20221 57.4992L5.01652 57.9634ZM5.02754 57.9675L5.02787 57.9677L5.19086 57.495L5.19053 57.4949L5.02754 57.9675ZM5.02933 57.9682L5.02971 57.9683L5.18836 57.4941L5.18799 57.494L5.02933 57.9682ZM5.02487 57.9666L5.02529 57.9668L5.19203 57.4954L5.19161 57.4952L5.02487 57.9666ZM4.54499 57.8026C4.70525 57.8562 4.86522 57.9114 5.02657 57.9672L5.1899 57.4946C5.02894 57.439 4.86662 57.3829 4.70361 57.3284L4.54499 57.8026ZM2.20924 56.6069C2.39023 56.893 2.67705 57.0858 3.0508 57.2572C3.42307 57.428 3.91787 57.593 4.54506 57.8026L4.70354 57.3284C4.06566 57.1152 3.60127 56.9596 3.25926 56.8028C2.91875 56.6466 2.7362 56.5047 2.63177 56.3396L2.20924 56.6069ZM2.22061 53.6613C2.10286 54.4281 2.0121 55.0169 1.9911 55.4735C1.97006 55.931 2.01566 56.301 2.20924 56.6069L2.63177 56.3396C2.52055 56.1638 2.47112 55.9193 2.49057 55.4965C2.51005 55.0729 2.59529 54.5155 2.71482 53.7372L2.22061 53.6613ZM34.8665 53.3296C23.9906 57.3312 13.2626 56.703 2.54009 53.46L2.39534 53.9386C13.1925 57.2042 24.0359 57.8474 35.0391 53.7989L34.8665 53.3296ZM35.2543 54.2835C35.2416 54.0722 35.2269 53.8291 35.2018 53.5425L34.7037 53.586C34.7282 53.8652 34.7425 54.1023 34.7552 54.3136L35.2543 54.2835ZM35.2545 54.2869L35.2545 54.2867L34.755 54.3105L34.755 54.3107L35.2545 54.2869ZM35.3543 55.2037C35.295 54.9475 35.2781 54.6784 35.2543 54.2838L34.7552 54.3139C34.7784 54.6977 34.7966 55.0115 34.8672 55.3166L35.3543 55.2037ZM33.6055 57.723C34.2044 57.5836 34.7368 57.3453 35.073 56.9275C35.419 56.4976 35.521 55.9247 35.3544 55.2039L34.8672 55.3165C35.0098 55.9333 34.9074 56.3358 34.6835 56.614C34.4498 56.9044 34.0466 57.1069 33.4922 57.236L33.6055 57.723ZM28.3669 3.74654L28.3668 3.74652L28.2694 4.23695L28.2695 4.23697L28.3669 3.74654ZM34.5886 5.03484C32.5356 4.58266 30.4744 4.16926 28.3674 3.74664L28.269 4.23688C30.3769 4.65965 32.4334 5.07214 34.481 5.52314L34.5886 5.03484ZM35.3326 5.97796C35.2775 5.81404 35.1888 5.61265 35.0772 5.44051C35.0213 5.35435 34.9554 5.2688 34.8798 5.19822C34.8058 5.12914 34.7082 5.06114 34.5885 5.03482L34.4811 5.52315C34.481 5.52312 34.5008 5.52843 34.5387 5.5638C34.575 5.59768 34.6156 5.64774 34.6576 5.71249C34.7417 5.84217 34.8138 6.00382 34.8587 6.13734L35.3326 5.97796ZM35.385 6.73902C35.3986 6.51983 35.4195 6.23641 35.3327 5.97802L34.8587 6.13728C34.9086 6.28585 34.901 6.4655 34.886 6.70823L35.385 6.73902ZM35.3737 7.00859C35.3737 6.92409 35.3791 6.83621 35.385 6.73902L34.886 6.70823C34.8802 6.80257 34.8737 6.90602 34.8737 7.00859H35.3737ZM35.3727 16.1917C35.3732 13.1307 35.3738 10.0696 35.3737 7.00858L34.8737 7.00859C34.8738 10.0696 34.8732 13.1306 34.8727 16.1917L35.3727 16.1917ZM35.3995 50.9414C35.3685 39.3583 35.3706 27.7753 35.3727 16.1917L34.8727 16.1917C34.8706 27.775 34.8685 39.3588 34.8995 50.9427L35.3995 50.9414ZM33.6402 53.2045C34.2939 53.08 34.7583 52.8585 35.0453 52.4597C35.3266 52.0689 35.4012 51.5559 35.3995 50.9414L34.8995 50.9427C34.9012 51.5352 34.824 51.9114 34.6395 52.1676C34.4607 52.416 34.1453 52.5993 33.5466 52.7134L33.6402 53.2045ZM30.0443 54.0891C31.245 53.7599 32.4341 53.434 33.6401 53.2046L33.5467 52.7134C32.3178 52.9472 31.1095 53.2786 29.9121 53.6069L30.0443 54.0891ZM28.0945 54.6077C28.748 54.4446 29.3978 54.2664 30.0443 54.0891L29.9121 53.6069C29.2647 53.7845 28.6204 53.9611 27.9735 54.1225L28.0945 54.6077ZM27.1394 54.7366C27.4686 54.7098 27.7863 54.6845 28.0945 54.6077L27.9735 54.1225C27.7121 54.1877 27.4366 54.2108 27.0988 54.2383L27.1394 54.7366ZM27.134 54.737L27.1342 54.737L27.104 54.2379L27.1038 54.2379L27.134 54.737ZM26.6199 54.7847C26.8023 54.7641 26.9733 54.7502 27.1392 54.7366L27.0986 54.2383C26.9334 54.2518 26.7551 54.2663 26.5639 54.2878L26.6199 54.7847ZM26.3419 3.6447V54.5363H26.8419V3.6447H26.3419ZM28.3657 3.74629C27.7946 3.63176 27.2202 3.51654 26.6414 3.39965L26.5424 3.88975C27.1216 4.00672 27.6963 4.122 28.2673 4.23653L28.3657 3.74629ZM28.3673 3.74663L28.3657 3.7463L28.2673 4.23652L28.2689 4.23685L28.3673 3.74663ZM31 24.75H29.5V25.25H31V24.75ZM31.25 37V25H30.75V37H31.25ZM29.5 37.25H31V36.75H29.5V37.25ZM29.25 25V37H29.75V25H29.25ZM5.5 25.25H7V24.75H5.5V25.25ZM5.75 37V25H5.25V37H5.75ZM7 36.75H5.5V37.25H7V36.75ZM6.75 25V37H7.25V25H6.75Z" fill="black"/>
</g>
</g>
</svg>
