<svg width="41" height="60" viewBox="0 0 41 60" fill="none" xmlns="http://www.w3.org/2000/svg">
<g opacity="0.750186">
<path fill-rule="evenodd" clip-rule="evenodd" d="M11.2387 57.5858H30.0334C29.9403 56.7979 29.7802 56.0463 29.4925 55.3237C29.3287 54.9111 29.0965 54.5421 28.8067 54.2074C28.6795 54.06 28.5351 53.9984 28.3337 53.9984C23.2201 54.0037 18.1059 54.0047 12.9922 53.9974C12.7437 53.9969 12.5831 54.089 12.4325 54.2669C11.9329 54.8584 11.6682 55.559 11.494 56.299C11.3946 56.7195 11.3245 57.1469 11.2387 57.5858ZM20.6441 38.4043C26.1533 38.4043 31.6625 38.4043 37.1716 38.4043C37.2527 38.4043 37.3348 38.4053 37.4154 38.3985C38.2739 38.3216 38.7886 37.4595 38.4245 36.6927C38.1807 36.179 37.7465 35.9953 37.1967 35.9953C26.1601 35.9985 15.123 35.9979 4.08582 35.9985C3.99218 35.9985 3.89801 36.0016 3.80542 36.0132C3.05942 36.1064 2.56925 36.9337 2.84075 37.6385C3.02961 38.13 3.46538 38.4043 4.06071 38.4043C9.5887 38.4043 15.1167 38.4043 20.6441 38.4043ZM13.4835 20.5759C13.5002 20.858 13.518 21.3174 13.5567 21.7748C13.7236 23.7469 14.2321 25.6195 15.1999 27.3516C15.8198 28.4611 16.593 29.4448 17.6387 30.1816C19.2123 31.2901 20.8968 31.5343 22.6781 30.7469C23.9195 30.1985 24.8376 29.2606 25.5946 28.1548C26.734 26.4901 27.3534 24.6238 27.6448 22.6406C27.8451 21.2764 27.8556 19.9069 27.6919 18.5359C27.4936 16.879 27.0547 15.2943 26.2909 13.8101C25.6626 12.5896 24.8559 11.5096 23.7479 10.6801C21.9316 9.31957 19.7606 9.23747 17.86 10.468C16.7279 11.2001 15.8988 12.2164 15.2401 13.3785C14.0076 15.5527 13.5159 17.918 13.4835 20.5759ZM5.1436 40.8048C5.1436 40.8758 5.13942 40.9374 5.14413 40.9985C5.18336 41.4811 5.19225 41.969 5.26968 42.4453C5.73475 45.299 7.10955 47.6206 9.38572 49.3821C11.2585 50.8326 13.3935 51.5784 15.7586 51.5921C19.0141 51.6111 22.2695 51.6048 25.525 51.59C26.1099 51.5874 26.7042 51.5426 27.2775 51.4305C30.7773 50.7453 33.3569 48.7969 35.0132 45.6237C35.6179 44.4653 35.959 43.2195 36.0955 41.9195C36.1342 41.5532 36.1389 41.1837 36.1599 40.8048H5.1436ZM20.0514 33.5948C19.0057 33.4432 18.3397 33.2632 17.6131 32.9274C16.0793 32.219 14.8609 31.129 13.8816 29.7637C12.274 27.5227 11.4767 24.9801 11.1984 22.2569C11.053 20.8306 11.0791 19.4038 11.2643 17.9801C11.4573 16.4938 11.8225 15.0548 12.4068 13.6764C13.1811 11.8496 14.2561 10.238 15.8146 8.98747C17.0507 7.99537 18.4433 7.36326 20.03 7.22852C21.8479 7.07379 23.4932 7.58168 24.9841 8.61694C26.4039 9.60326 27.4653 10.9096 28.2851 12.4227C29.3607 14.408 29.9267 16.5459 30.1197 18.7869C30.2877 20.7317 30.1647 22.6601 29.7138 24.5627C29.1776 26.8243 28.2527 28.8927 26.7047 30.6453C25.6731 31.8132 24.4494 32.7132 22.9643 33.2048C22.4118 33.3879 21.8322 33.4874 21.4064 33.5906H29.0013C29.0013 33.1937 29.0013 32.8111 29.0013 32.4279C29.0018 31.7122 29.5066 31.1995 30.2155 31.1974C30.7538 31.1958 31.2921 31.1927 31.8309 31.2001C31.9648 31.2016 32.0485 31.168 32.1118 31.0416C32.2332 30.8006 32.375 30.5701 32.5031 30.3327C33.9862 27.5769 34.7704 24.6238 34.9336 21.5022C35.0268 19.7164 34.9038 17.9417 34.5638 16.1843C34.0129 13.338 32.9593 10.7043 31.2633 8.34852C29.6997 6.17642 27.7551 4.45748 25.2917 3.38011C23.2269 2.47695 21.0742 2.19222 18.8503 2.54274C16.8493 2.85853 15.0492 3.66801 13.4238 4.87485C11.3177 6.438 9.73936 8.44589 8.55655 10.7785C7.35176 13.1543 6.66802 15.6827 6.4279 18.3327C6.24794 20.3111 6.32171 22.2811 6.67587 24.239C7.11583 26.6695 7.9518 28.9495 9.21047 31.0711C9.24761 31.1343 9.35381 31.1901 9.42862 31.1916C9.9732 31.2016 10.5183 31.1922 11.0629 31.1985C11.6671 31.2058 12.1202 31.5532 12.2583 32.1206C12.2949 32.2711 12.2912 32.4327 12.2933 32.5895C12.298 32.9216 12.2949 33.2537 12.2949 33.5948H20.0514ZM0.37207 37.5727C0.37207 37.3206 0.37207 37.0685 0.37207 36.8169C0.384626 36.7758 0.403982 36.7358 0.409213 36.6943C0.626315 34.9858 2.17637 33.6064 3.88441 33.6043C4.62936 33.6032 5.37431 33.6037 6.11978 33.6037H6.32903C6.33269 33.5185 6.33792 33.4564 6.33792 33.3948C6.33897 33.0737 6.34054 32.7522 6.33792 32.4311C6.33635 32.1506 6.40593 31.8895 6.58955 31.679C6.69261 31.5606 6.67953 31.4758 6.61309 31.3501C4.98509 28.2532 4.12505 24.9511 3.97596 21.4532C3.8593 18.7117 4.17318 16.0243 4.96521 13.3996C6.04863 9.81115 7.8456 6.64905 10.6099 4.09274C12.9033 1.97222 15.5655 0.595906 18.673 0.144854C20.3957 -0.105145 22.1047 -0.0309348 23.7987 0.362749C26.464 0.982221 28.7617 2.2938 30.7559 4.15643C33.1361 6.38063 34.7971 9.08115 35.9103 12.1343C36.7369 14.4001 37.1899 16.7422 37.3108 19.1522C37.4159 21.2453 37.2647 23.3169 36.8358 25.3664C36.3927 27.4816 35.6739 29.4985 34.6527 31.4027C34.6062 31.4901 34.5936 31.5479 34.67 31.6316C34.8782 31.8601 34.9587 32.1416 34.9603 32.4474C34.9624 32.7627 34.9603 33.0774 34.9614 33.3927C34.9619 33.459 34.9676 33.5253 34.9718 33.6037C35.7288 33.6037 36.467 33.6011 37.2046 33.6053C37.417 33.6069 37.6304 33.6153 37.8407 33.6416C39.8506 33.8937 41.2903 35.9295 40.8414 37.9137C40.5506 39.1985 39.7946 40.1048 38.5778 40.5564C38.3994 46.23 35.7743 50.3 30.8087 52.8474C31.0316 53.1937 31.291 53.5411 31.493 53.9195C32.3216 55.4737 32.5837 57.1579 32.5628 58.8984C32.5612 59.06 32.4969 59.2347 32.4168 59.3789C32.1579 59.8447 31.7378 60 31.2209 60C24.1701 59.9947 17.1198 59.9963 10.0695 59.9963C10.0255 59.9963 9.9821 59.9974 9.93815 59.9958C9.20733 59.9753 8.70146 59.46 8.72291 58.7242C8.73808 58.1837 8.76737 57.6416 8.83119 57.1053C8.97087 55.9342 9.28528 54.8121 9.87485 53.7837C10.0632 53.4542 10.2928 53.149 10.5052 52.8311C10.1835 52.6616 9.84765 52.4963 9.52226 52.3126C7.18331 50.9905 5.39575 49.1279 4.17109 46.7274C3.21532 44.8532 2.75862 42.8542 2.7581 40.749C2.7581 40.6264 2.72723 40.5648 2.60691 40.5137C1.68357 40.1216 1.00193 39.479 0.645671 38.5237C0.530581 38.2158 0.46205 37.89 0.37207 37.5727Z" fill="black"/>
</g>
</svg>
