<svg width="37" height="23" viewBox="0 0 37 23" fill="none" xmlns="http://www.w3.org/2000/svg">
<mask id="mask0" mask-type="alpha" maskUnits="userSpaceOnUse" x="0" y="0" width="37" height="23">
<path fill-rule="evenodd" clip-rule="evenodd" d="M0 0.0708008H36.9999V22.991H0V0.0708008Z" fill="white"/>
</mask>
<g mask="url(#mask0)">
<path fill-rule="evenodd" clip-rule="evenodd" d="M35.8414 14.5946H35.1848C34.8227 14.5946 34.5282 14.3062 34.5282 13.9516V13.3086H35.8413V14.5946H35.8414ZM30.8592 21.8565C29.4748 21.8565 28.3486 20.7537 28.3486 19.3981C28.3486 18.0425 29.4748 16.9397 30.8592 16.9397C32.2433 16.9397 33.3695 18.0425 33.3695 19.3981C33.3695 20.7537 32.2433 21.8565 30.8592 21.8565V21.8565ZM10.4666 21.8565C9.08234 21.8565 7.95616 20.7537 7.95616 19.3981C7.95616 18.0425 9.08234 16.9397 10.4666 16.9397C11.8508 16.9397 12.977 18.0425 12.977 19.3981C12.977 20.7537 11.8508 21.8565 10.4666 21.8565V21.8565ZM27.1128 9.75338V6.04677H32.2606L33.2069 9.75338H27.1128ZM27.1128 3.62618H31.477C32.1798 3.62618 32.7516 4.1861 32.7516 4.87433V4.91219H27.1128V3.62618ZM34.4099 9.78749L33.4518 6.03431C33.7137 5.97982 33.9102 5.75215 33.9102 5.47948V4.87433C33.9102 3.5605 32.8186 2.4916 31.477 2.4916H27.1128V1.24331C27.1128 0.596829 26.5757 0.0708008 25.9155 0.0708008H3.66907C3.00885 0.0708008 2.47177 0.596829 2.47177 1.24331V11.531C2.47177 11.8444 2.73113 12.0985 3.05113 12.0985C3.37105 12.0985 3.63048 11.8445 3.63048 11.531V1.24331C3.63048 1.22243 3.64775 1.20559 3.66907 1.20559H25.9154C25.9367 1.20559 25.9541 1.22243 25.9541 1.24331V11.5312C25.9541 11.8445 26.2134 12.0985 26.5333 12.0985C26.8533 12.0985 27.1127 11.8446 27.1127 11.5312V10.8881H33.9468C33.9474 10.8881 33.9478 10.8882 33.9484 10.8882C33.9489 10.8882 33.9494 10.8881 33.9499 10.8881C34.7908 10.8887 35.5049 11.4292 35.7502 12.1741H33.9488C33.6288 12.1741 33.3694 12.4281 33.3694 12.7414V13.9517C33.3694 14.932 34.1837 15.7293 35.1846 15.7293H35.8412V18.2257H34.3264C33.8288 16.8186 32.4629 15.805 30.8589 15.805C29.255 15.805 27.889 16.8186 27.3915 18.2257H27.1125V13.9516C27.1125 13.6383 26.8532 13.3843 26.5332 13.3843C26.2133 13.3843 25.9538 13.6383 25.9538 13.9516V18.2255H13.934C13.4364 16.8184 12.0705 15.8049 10.4666 15.8049C8.86266 15.8049 7.49669 16.8184 6.99914 18.2255H3.66907C3.64775 18.2255 3.63048 18.2085 3.63048 18.1877V16.9396H6.14092C6.46084 16.9396 6.72027 16.6856 6.72027 16.3721C6.72027 16.0588 6.46091 15.8049 6.14092 15.8049H0.579354C0.259434 15.8049 0 16.0588 0 16.3721C0 16.6856 0.259361 16.9396 0.579354 16.9396H2.47185V18.1877C2.47185 18.8342 3.00892 19.3602 3.66914 19.3602H6.79853C6.79839 19.3728 6.79752 19.3853 6.79752 19.3979C6.79752 21.3792 8.44352 22.9911 10.4666 22.9911C12.4897 22.9911 14.1357 21.3792 14.1357 19.3979C14.1357 19.3852 14.1348 19.3728 14.1347 19.3602H27.1909C27.1907 19.3728 27.1899 19.3853 27.1899 19.3979C27.1899 21.3792 28.8359 22.9911 30.859 22.9911C32.882 22.9911 34.528 21.3792 34.528 19.3979C34.528 19.3852 34.5271 19.3728 34.5271 19.3602H36.4206C36.7405 19.3602 36.9999 19.1062 36.9999 18.7928V12.7413C37 11.2472 35.8743 10.0058 34.4099 9.78749V9.78749Z" fill="white"/>
</g>
<path fill-rule="evenodd" clip-rule="evenodd" d="M10.4668 18.2256C9.80661 18.2256 9.26953 18.7515 9.26953 19.398C9.26953 20.0446 9.80661 20.5706 10.4668 20.5706C11.127 20.5706 11.6641 20.0446 11.6641 19.398C11.6641 18.7515 11.127 18.2256 10.4668 18.2256" fill="white"/>
<path fill-rule="evenodd" clip-rule="evenodd" d="M30.8589 18.2256C30.1986 18.2256 29.6616 18.7515 29.6616 19.398C29.6616 20.0446 30.1986 20.5706 30.8589 20.5706C31.5191 20.5706 32.0561 20.0446 32.0561 19.398C32.0561 18.7515 31.5191 18.2256 30.8589 18.2256" fill="white"/>
<path fill-rule="evenodd" clip-rule="evenodd" d="M24.0618 15.8052H15.4104C15.0905 15.8052 14.8311 16.0755 14.8311 16.4091C14.8311 16.7426 15.0904 17.013 15.4104 17.013H24.0618C24.3817 17.013 24.6411 16.7426 24.6411 16.4091C24.6411 16.0755 24.3818 15.8052 24.0618 15.8052" fill="white"/>
<path fill-rule="evenodd" clip-rule="evenodd" d="M9.23066 13.3843H1.81519C1.49527 13.3843 1.23584 13.6546 1.23584 13.9882C1.23584 14.3217 1.4952 14.5921 1.81519 14.5921H9.23066C9.55058 14.5921 9.81001 14.3217 9.81001 13.9882C9.81001 13.6546 9.55058 13.3843 9.23066 13.3843" fill="white"/>
<path fill-rule="evenodd" clip-rule="evenodd" d="M20.1458 5.68321C19.9195 5.4617 19.5527 5.4617 19.3264 5.68328L14.1745 10.7285L11.4944 8.10387C11.2681 7.88229 10.9013 7.88229 10.6751 8.10387C10.4488 8.32545 10.4488 8.68461 10.6751 8.90618L13.7649 11.932C13.878 12.0428 14.0262 12.0982 14.1745 12.0982C14.3227 12.0982 14.4711 12.0428 14.5841 11.932L20.1456 6.48559C20.372 6.26394 20.372 5.90479 20.1458 5.68321" fill="white"/>
</svg>
