<svg width="34" height="34" viewBox="0 0 34 34" fill="none" xmlns="http://www.w3.org/2000/svg">
<path fill-rule="evenodd" clip-rule="evenodd" d="M0.0747507 3.16773L2.33832 7.12179C2.41467 7.25535 2.54243 7.35205 2.69186 7.38945L4.80367 7.91648L12.0466 15.1467L12.8469 14.3481L5.49059 7.00485C5.41824 6.93238 5.32745 6.88105 5.22802 6.85616L3.19887 6.34795L1.27167 2.97951L2.92395 1.33012L6.29973 3.2558L6.80908 5.28139C6.83377 5.38083 6.88543 5.47169 6.95784 5.54398L14.3141 12.8874L15.1141 12.0885L7.87125 4.85826L7.34329 2.75133C7.30583 2.60194 7.20896 2.4741 7.07511 2.39764L3.11393 0.138277C2.89299 0.0128166 2.61509 0.0499724 2.43489 0.229142L0.171561 2.48874C-0.0104879 2.66744 -0.0500352 2.94533 0.0747507 3.16773Z" fill="white"/>
<path fill-rule="evenodd" clip-rule="evenodd" d="M23.6007 11.1922L11.1519 23.6195L10.3516 22.8206L22.8006 10.3936L23.6007 11.1922Z" fill="white"/>
<path fill-rule="evenodd" clip-rule="evenodd" d="M8.16802 29.4336H5.41331L4.05527 27.1743L5.41331 24.9147H8.16802L9.52605 27.1743L8.16802 29.4336ZM8.97323 24.0591C8.87075 23.889 8.68685 23.7852 8.4881 23.7852H5.09299C4.89442 23.7852 4.71028 23.889 4.6081 24.0591L2.91043 26.8833C2.80264 27.0623 2.80264 27.2861 2.91043 27.4652L4.6081 30.2895C4.71028 30.4593 4.89442 30.5634 5.09299 30.5634H8.4881C8.68685 30.5634 8.87075 30.4593 8.97323 30.2895L10.6707 27.4652C10.7784 27.2861 10.7784 27.0623 10.6707 26.8833L8.97323 24.0591Z" fill="white"/>
<mask id="mask0" mask-type="alpha" maskUnits="userSpaceOnUse" x="0" y="0" width="34" height="34">
<path fill-rule="evenodd" clip-rule="evenodd" d="M0 0.0595703H33.966V33.9672H0V0.0595703Z" fill="white"/>
</mask>
<g mask="url(#mask0)">
<path fill-rule="evenodd" clip-rule="evenodd" d="M25.2589 12.4608L12.4223 25.2724C12.2815 25.4128 12.2248 25.6165 12.2728 25.8092C13.0491 28.8526 11.2069 31.948 8.15797 32.7227C5.10925 33.4977 2.00839 31.6587 1.23205 28.6151C0.456018 25.5717 2.29822 22.4763 5.34719 21.7013C6.26942 21.467 7.23568 21.467 8.15797 21.7013C8.35094 21.7485 8.55464 21.6921 8.69571 21.5524L21.5293 8.7405C21.6699 8.60021 21.7265 8.39639 21.678 8.204C20.9071 5.19616 22.7246 2.13396 25.7377 1.3641C26.3071 1.21888 26.896 1.16308 27.4826 1.19958L24.4977 4.18045C24.3461 4.33151 24.2931 4.55528 24.3608 4.75815L25.4924 8.14749C25.5489 8.316 25.6816 8.44843 25.8506 8.50446L29.246 9.6342C29.449 9.70185 29.6731 9.64909 29.8247 9.49808L32.8096 6.51835C32.8163 6.62619 32.8198 6.73283 32.8198 6.839C32.8357 9.94282 30.3281 12.4717 27.2189 12.4878C26.7383 12.4901 26.2592 12.431 25.7936 12.312C25.6006 12.264 25.3965 12.3202 25.2559 12.4605H25.2589V12.4608ZM22.9739 18.1421C22.3472 18.8882 22.4455 20.0004 23.193 20.6257C23.8499 21.1752 24.8074 21.1747 25.4636 20.624L31.8138 26.9687C31.8826 27.0377 31.9471 27.1105 32.0095 27.1843L27.1714 32.0139C27.0972 31.9519 27.0243 31.8875 26.9551 31.8185L20.6001 25.4741C21.2267 24.7279 21.1285 23.6158 20.381 22.9905C19.7241 22.4407 18.7664 22.4414 18.1102 22.9919L17.205 22.0882L22.0684 17.2404L22.9739 18.1421ZM29.3845 32.8231C28.9734 32.8224 28.5657 32.7482 28.181 32.604L32.6003 28.1922C33.2672 29.963 32.3699 31.9382 30.5959 32.604C30.2087 32.7492 29.7984 32.8236 29.3845 32.8231ZM27.1612 13.6176C30.8985 13.6301 33.9386 10.6158 33.9511 6.88503C33.953 6.31709 33.8831 5.75153 33.7433 5.20104C33.6679 4.89826 33.3608 4.71397 33.0575 4.78929C32.9579 4.81412 32.8671 4.86545 32.7944 4.93774L29.272 8.45165L26.4773 7.52198L25.5452 4.73278L29.0677 1.21584C29.2886 0.995106 29.2883 0.637481 29.0672 0.416928C28.9943 0.344224 28.9026 0.292598 28.8022 0.268007C25.1779 -0.648267 21.496 1.54185 20.5782 5.15966C20.4387 5.70854 20.3691 6.27273 20.371 6.839C20.3724 7.2838 20.4183 7.72717 20.5086 8.16262L8.11604 20.5332C7.67982 20.4432 7.23568 20.3975 6.7904 20.3958C3.04008 20.3958 0 23.4306 0 27.1744C0 30.9178 3.04008 33.9527 6.7904 33.9527C10.5405 33.9527 13.5806 30.9178 13.5806 27.1744C13.5792 26.7296 13.5331 26.2862 13.443 25.8508L16.4098 22.8892L17.7073 24.1844C17.9284 24.4049 18.2865 24.4049 18.5076 24.1844L18.7904 23.9019C19.0386 23.6558 19.4396 23.6558 19.6878 23.9019C19.9357 24.1487 19.9362 24.5492 19.6889 24.7967L19.6878 24.7979L19.4049 25.0802C19.1841 25.3008 19.1841 25.6584 19.4049 25.8789L26.1551 32.6172C27.9305 34.4058 30.8221 34.4188 32.6138 32.6465C34.4053 30.8742 34.4183 27.9874 32.6429 26.1991C32.6334 26.1893 32.6236 26.1796 32.6138 26.1698L25.8637 19.4317C25.6428 19.2112 25.2845 19.2112 25.0636 19.4317L24.7808 19.714C24.5324 19.9604 24.1316 19.9604 23.8832 19.714C23.6355 19.4672 23.6348 19.0667 23.882 18.8194C23.8825 18.819 23.883 18.8187 23.8832 18.8183L24.1662 18.5357C24.3872 18.3152 24.3872 17.9575 24.1662 17.737L22.8688 16.4418L25.8355 13.4803C26.2717 13.5702 26.7159 13.6161 27.1612 13.6176Z" fill="white"/>
</g>
<path fill-rule="evenodd" clip-rule="evenodd" d="M29.2595 28.4693L28.4592 29.2682L22.8008 23.6197L23.6009 22.8208L29.2595 28.4693Z" fill="white"/>
</svg>
