<svg width="24" height="35" viewBox="0 0 24 35" fill="none" xmlns="http://www.w3.org/2000/svg">
<path fill-rule="evenodd" clip-rule="evenodd" d="M5.27207 9.57038L5.58519 6.49421H8.80675L9.06755 9.57038H5.27207ZM6.6782 4.95605C6.6782 4.67332 6.91221 4.44336 7.19994 4.44336C7.48766 4.44336 7.72167 4.67332 7.72167 4.95605V5.46882H6.6782V4.95605ZM10.1513 10.0023L9.80675 5.93893C9.78421 5.67321 9.5582 5.46882 9.28682 5.46882H8.76515V4.95605C8.76515 4.10792 8.06303 3.41797 7.19994 3.41797C6.33684 3.41797 5.63472 4.10792 5.63472 4.95605V5.46882H5.11305C4.84501 5.46882 4.6206 5.66836 4.59388 5.93045L4.17642 10.032C4.16174 10.1762 4.20981 10.3197 4.30874 10.4271C4.40766 10.5345 4.54818 10.5957 4.69559 10.5957H9.63458H9.63597C9.92411 10.5957 10.1577 10.3662 10.1577 10.083C10.1577 10.0556 10.1555 10.0286 10.1513 10.0023V10.0023Z" fill="white"/>
<mask id="mask0" mask-type="alpha" maskUnits="userSpaceOnUse" x="0" y="0" width="24" height="33">
<path fill-rule="evenodd" clip-rule="evenodd" d="M0 0H23.9987V32.0247H0V0Z" fill="white"/>
</mask>
<g mask="url(#mask0)">
<path fill-rule="evenodd" clip-rule="evenodd" d="M19.8251 4.10143V1.75048L22.2175 4.10143H19.8251ZM23.9962 4.56299C23.9949 4.55048 23.9927 4.53831 23.9905 4.52614C23.9898 4.52184 23.9894 4.51746 23.9885 4.51322C23.9856 4.49873 23.9818 4.48451 23.9775 4.47043C23.977 4.46858 23.9766 4.4666 23.9761 4.46476C23.9715 4.4504 23.9663 4.43639 23.9607 4.42258C23.96 4.42094 23.9595 4.4193 23.9589 4.41766C23.9533 4.40446 23.947 4.39161 23.9403 4.37903C23.9391 4.37685 23.9382 4.37452 23.937 4.37233C23.9306 4.36064 23.9235 4.3493 23.9162 4.33815C23.9143 4.33521 23.9127 4.33214 23.9106 4.3292C23.9034 4.31854 23.8954 4.30835 23.8874 4.29823C23.8849 4.29516 23.8828 4.29187 23.8803 4.28887C23.8694 4.27595 23.858 4.26344 23.8459 4.25161L19.6724 0.150254C19.6604 0.138428 19.6477 0.127148 19.6345 0.116484C19.6311 0.11375 19.6274 0.111426 19.6239 0.10876C19.6141 0.101104 19.604 0.0935156 19.5935 0.0866113C19.5903 0.0844238 19.5868 0.0826465 19.5834 0.0805957C19.5724 0.0736914 19.5613 0.0668555 19.5497 0.0607715C19.5471 0.0594043 19.5445 0.0583789 19.5419 0.0570801C19.5293 0.0507227 19.5165 0.0445703 19.5035 0.0392383C19.5016 0.0384863 19.4997 0.0379395 19.4978 0.0372559C19.484 0.0317871 19.4699 0.0266602 19.4555 0.0223535C19.4534 0.0217383 19.4513 0.0213281 19.4492 0.0207813C19.435 0.016748 19.4207 0.0129883 19.4061 0.0101172C19.4017 0.00922852 19.3972 0.00888672 19.3928 0.00813477C19.3805 0.00601562 19.3681 0.00389648 19.3555 0.00266602C19.3382 0.000888672 19.3208 0 19.3034 0H0.521739C0.2336 0 0 0.229551 0 0.512695V31.512C0 31.7951 0.2336 32.0247 0.521739 32.0247H12.3478C12.6359 32.0247 12.8695 31.7951 12.8695 31.512C12.8695 31.2287 12.6359 30.9993 12.3478 30.9993H1.04348V1.02539H18.7816V4.61412C18.7816 4.89727 19.0152 5.12682 19.3034 5.12682H22.9553V30.9993H19.9999C19.7118 30.9993 19.4782 31.2287 19.4782 31.512C19.4782 31.7951 19.7118 32.0247 19.9999 32.0247H23.477C23.7651 32.0247 23.9987 31.7951 23.9987 31.512V4.61412C23.9987 4.59696 23.9978 4.57987 23.9962 4.56299V4.56299Z" fill="white"/>
</g>
<path fill-rule="evenodd" clip-rule="evenodd" d="M19.3034 14.5942H4.69557C4.40743 14.5942 4.17383 14.8238 4.17383 15.1069C4.17383 15.3901 4.40743 15.6196 4.69557 15.6196H19.3034C19.5916 15.6196 19.8252 15.3901 19.8252 15.1069C19.8252 14.8238 19.5916 14.5942 19.3034 14.5942" fill="white"/>
<path fill-rule="evenodd" clip-rule="evenodd" d="M19.3034 17.3291H4.69557C4.40743 17.3291 4.17383 17.5587 4.17383 17.8418C4.17383 18.1249 4.40743 18.3545 4.69557 18.3545H19.3034C19.5916 18.3545 19.8252 18.1249 19.8252 17.8418C19.8252 17.5587 19.5916 17.3291 19.3034 17.3291" fill="white"/>
<path fill-rule="evenodd" clip-rule="evenodd" d="M19.3034 20.0635H4.69557C4.40743 20.0635 4.17383 20.293 4.17383 20.5762C4.17383 20.8593 4.40743 21.0889 4.69557 21.0889H19.3034C19.5916 21.0889 19.8252 20.8593 19.8252 20.5762C19.8252 20.293 19.5916 20.0635 19.3034 20.0635" fill="white"/>
<path fill-rule="evenodd" clip-rule="evenodd" d="M10.956 22.7979H4.69557C4.40743 22.7979 4.17383 23.0273 4.17383 23.3105C4.17383 23.5937 4.40743 23.8232 4.69557 23.8232H10.956C11.2442 23.8232 11.4778 23.5937 11.4778 23.3105C11.4778 23.0273 11.2442 22.7979 10.956 22.7979" fill="white"/>
<mask id="mask1" mask-type="alpha" maskUnits="userSpaceOnUse" x="12" y="24" width="8" height="11">
<path fill-rule="evenodd" clip-rule="evenodd" d="M12.5215 24.165H19.8258V34.9998H12.5215V24.165Z" fill="white"/>
</mask>
<g mask="url(#mask1)">
<path fill-rule="evenodd" clip-rule="evenodd" d="M16.1737 30.3174C14.7352 30.3174 13.565 29.1674 13.565 27.7539C13.565 26.3403 14.7352 25.1904 16.1737 25.1904C17.6121 25.1904 18.7824 26.3403 18.7824 27.7539C18.7824 29.1674 17.6121 30.3174 16.1737 30.3174V30.3174ZM16.5072 32.7256C16.5072 32.7255 16.5072 32.7255 16.5072 32.7255L16.4998 32.7197C16.496 32.7167 16.4919 32.7143 16.4882 32.7114C16.4788 32.7045 16.4696 32.6977 16.46 32.6914C16.4544 32.6879 16.4486 32.6847 16.4428 32.6812C16.434 32.6761 16.4252 32.6708 16.4161 32.6661C16.4089 32.6625 16.4016 32.6592 16.3943 32.6559C16.3865 32.6522 16.3786 32.6486 16.3706 32.6454C16.3621 32.642 16.3535 32.6391 16.3449 32.6362C16.3378 32.6337 16.3306 32.6312 16.3234 32.629C16.3142 32.6264 16.3051 32.6242 16.2958 32.6221C16.2887 32.6203 16.2816 32.6186 16.2744 32.6172C16.2653 32.6154 16.2563 32.6142 16.2473 32.6129C16.2395 32.6118 16.2318 32.6108 16.2242 32.61C16.2157 32.6091 16.2075 32.6089 16.1991 32.6084C16.1904 32.608 16.1818 32.6076 16.1731 32.6076C16.1657 32.6076 16.1584 32.608 16.151 32.6084C16.1414 32.6088 16.1318 32.6091 16.1222 32.6101C16.1157 32.6108 16.1092 32.6117 16.1028 32.6125C16.0925 32.614 16.0824 32.6154 16.0722 32.6174C16.0661 32.6186 16.0601 32.6201 16.054 32.6214C16.0438 32.6238 16.0336 32.6262 16.0235 32.6292C16.0171 32.6312 16.0108 32.6334 16.0045 32.6355C15.9952 32.6387 15.9857 32.6419 15.9764 32.6456C15.9691 32.6486 15.9618 32.652 15.9545 32.6553C15.9467 32.6589 15.9389 32.6624 15.9312 32.6663C15.9224 32.6709 15.9139 32.676 15.9053 32.681C15.8994 32.6846 15.8933 32.6879 15.8875 32.6916C15.8779 32.6978 15.8686 32.7047 15.8593 32.7115C15.8555 32.7144 15.8515 32.7169 15.8477 32.7198L15.8405 32.7255C15.8404 32.7256 15.8403 32.7256 15.8402 32.7258L14.9564 33.4206V31.1372C15.3374 31.27 15.7469 31.343 16.1737 31.343C16.6004 31.343 17.0099 31.2701 17.391 31.1372L17.391 33.4204L16.5072 32.7256ZM19.8258 27.7539C19.8258 25.775 18.1875 24.165 16.1737 24.165C14.1598 24.165 12.5215 25.775 12.5215 27.7539C12.5215 28.8943 13.0663 29.9115 13.9129 30.5694V34.4872C13.9129 34.4926 13.9136 34.4978 13.9138 34.5033C13.9142 34.5138 13.9144 34.5242 13.9154 34.5346C13.9161 34.542 13.9172 34.5491 13.9182 34.5564C13.9195 34.5657 13.9208 34.5751 13.9227 34.5844C13.9241 34.5922 13.9261 34.5998 13.928 34.6075C13.9301 34.6161 13.9321 34.6246 13.9347 34.633C13.9372 34.6411 13.9401 34.6488 13.9429 34.6568C13.9456 34.6646 13.9483 34.6725 13.9516 34.6801C13.9549 34.6883 13.9588 34.6963 13.9626 34.7043C13.9661 34.7113 13.9693 34.7186 13.973 34.7255C13.9776 34.7339 13.9825 34.742 13.9874 34.7501C13.9913 34.7564 13.9949 34.7627 13.999 34.7689C14.0048 34.7775 14.0112 34.7857 14.0174 34.794C14.0208 34.7985 14.0237 34.8031 14.0273 34.8075C14.028 34.8083 14.0288 34.8091 14.0295 34.81C14.0412 34.8242 14.0536 34.8378 14.0667 34.8506C14.0705 34.8542 14.0745 34.8574 14.0783 34.8609C14.0879 34.8697 14.0976 34.8783 14.1078 34.8865C14.114 34.8912 14.1202 34.8957 14.1266 34.9003C14.1351 34.9064 14.1437 34.9124 14.1525 34.918C14.1592 34.9222 14.1659 34.9262 14.1728 34.9301C14.1821 34.9355 14.1915 34.9404 14.2012 34.9451C14.2077 34.9483 14.2142 34.9516 14.221 34.9545C14.2316 34.9592 14.2425 34.9634 14.2535 34.9674C14.2595 34.9696 14.2654 34.972 14.2715 34.9738C14.2838 34.9779 14.2964 34.9812 14.3092 34.9843C14.3142 34.9854 14.3193 34.987 14.3243 34.988C14.3384 34.991 14.3527 34.9932 14.3672 34.9951C14.3712 34.9956 14.3752 34.9964 14.3792 34.9968C14.3963 34.9986 14.4136 34.9995 14.4311 34.9996C14.4324 34.9996 14.4338 34.9998 14.4351 34.9998C14.4357 34.9998 14.4361 34.9997 14.4367 34.9997C14.4621 34.9996 14.487 34.9972 14.5114 34.9936C14.5167 34.9929 14.5218 34.9923 14.5271 34.9913C14.552 34.987 14.5761 34.981 14.5995 34.9733C14.6039 34.9719 14.608 34.9702 14.6123 34.9688C14.6372 34.9598 14.6617 34.9496 14.6847 34.9372C14.6855 34.9368 14.6863 34.9362 14.6871 34.9358C14.7115 34.9225 14.7344 34.9073 14.7561 34.8905C14.7577 34.8894 14.7593 34.8886 14.7608 34.8875L16.1739 33.7766L17.587 34.8875C17.5885 34.8886 17.5901 34.8893 17.5915 34.8904C17.6134 34.9073 17.6364 34.9225 17.6608 34.9359C17.6615 34.9362 17.6622 34.9368 17.663 34.9372C17.6861 34.9497 17.7105 34.9599 17.7355 34.9688C17.7398 34.9703 17.7439 34.972 17.7481 34.9733C17.7716 34.981 17.7958 34.987 17.8206 34.9913C17.8258 34.9923 17.831 34.9929 17.8363 34.9936C17.8608 34.9973 17.8856 34.9996 17.9111 34.9997C17.9116 34.9997 17.9121 34.9999 17.9126 34.9999C17.914 34.9999 17.9153 34.9996 17.9165 34.9996C17.9341 34.9995 17.9514 34.9986 17.9685 34.9968C17.9725 34.9964 17.9764 34.9956 17.9803 34.9951C17.9948 34.9932 18.0093 34.991 18.0233 34.988C18.0283 34.9869 18.0333 34.9854 18.0382 34.9843C18.0511 34.9812 18.0638 34.9779 18.0763 34.9738C18.0822 34.9719 18.088 34.9696 18.0939 34.9675C18.105 34.9634 18.116 34.9591 18.1268 34.9545C18.1334 34.9516 18.1398 34.9483 18.1464 34.9451C18.1561 34.9404 18.1656 34.9354 18.175 34.9301C18.1817 34.9262 18.1885 34.9221 18.1952 34.918C18.2041 34.9123 18.2127 34.9063 18.2211 34.9001C18.2274 34.8956 18.2338 34.8912 18.24 34.8864C18.2502 34.8783 18.2598 34.8696 18.2694 34.8609C18.2732 34.8574 18.2772 34.8541 18.2809 34.8505C18.2941 34.8377 18.3065 34.824 18.3182 34.8098C18.3189 34.8089 18.3198 34.8083 18.3204 34.8074C18.324 34.8031 18.3268 34.7985 18.3302 34.794C18.3366 34.7858 18.3429 34.7775 18.3488 34.7688C18.3529 34.7627 18.3565 34.7564 18.3604 34.7501C18.3653 34.742 18.3703 34.7339 18.3748 34.7255C18.3786 34.7186 18.3819 34.7114 18.3852 34.7043C18.389 34.6963 18.3929 34.6883 18.3963 34.6801C18.3995 34.6724 18.4022 34.6646 18.405 34.6568C18.4078 34.6488 18.4107 34.641 18.4131 34.633C18.4157 34.6245 18.4177 34.616 18.4198 34.6074C18.4217 34.5998 18.4237 34.5921 18.4252 34.5844C18.427 34.5749 18.4283 34.5656 18.4296 34.5563C18.4306 34.549 18.4317 34.5419 18.4324 34.5345C18.4334 34.5242 18.4337 34.5137 18.434 34.5032C18.4342 34.4978 18.4349 34.4925 18.4349 34.487L18.4347 30.5694C19.281 29.9115 19.8258 28.8943 19.8258 27.7539V27.7539Z" fill="white"/>
</g>
<path fill-rule="evenodd" clip-rule="evenodd" d="M16.1736 28.2666C15.8859 28.2666 15.6519 28.0366 15.6519 27.7539C15.6519 27.4711 15.8859 27.2412 16.1736 27.2412C16.4613 27.2412 16.6954 27.4711 16.6954 27.7539C16.6954 28.0366 16.4613 28.2666 16.1736 28.2666M16.1736 26.2158C15.3105 26.2158 14.6084 26.9058 14.6084 27.7539C14.6084 28.602 15.3105 29.292 16.1736 29.292C17.0367 29.292 17.7388 28.602 17.7388 27.7539C17.7388 26.9058 17.0367 26.2158 16.1736 26.2158" fill="white"/>
</svg>
