<svg width="35" height="40" viewBox="0 0 35 40" fill="none" xmlns="http://www.w3.org/2000/svg">
<mask id="mask0" mask-type="alpha" maskUnits="userSpaceOnUse" x="0" y="0" width="35" height="40">
<path fill-rule="evenodd" clip-rule="evenodd" d="M0 0H35V40H0V0Z" fill="white"/>
</mask>
<g mask="url(#mask0)">
<path fill-rule="evenodd" clip-rule="evenodd" d="M29.0566 38.6667H33.6792V37.3333H29.0566V38.6667ZM30.3774 36H32.3585V34.6667H30.3774V36ZM30.3774 33.3333V26.6667H30.3681C31.1676 25.5947 31.8359 24.4292 32.3585 23.1953V33.3333H30.3774ZM5.28302 16.6667C5.28302 10.0392 10.6049 4.66667 17.1698 4.66667C23.7347 4.66667 29.0566 10.0392 29.0566 16.6667C29.0566 23.2941 23.7347 28.6667 17.1698 28.6667C10.6081 28.6589 5.2907 23.2909 5.28302 16.6667V16.6667ZM17.1698 32C12.5553 32.0101 8.1886 29.8927 5.31208 26.25L5.28302 26.2733V22.44C8.45869 29.0501 16.341 31.8098 22.8888 28.6039C29.4365 25.3981 32.1701 17.4407 28.9945 10.8305C25.8189 4.22042 17.9365 1.46075 11.3888 4.66658C6.83639 6.8955 3.95029 11.559 3.96226 16.6667V31.3333H1.98113V16.6667C1.98113 8.19833 8.78137 1.33333 17.1698 1.33333C25.5583 1.33333 32.3585 8.19833 32.3585 16.6667C32.3585 25.135 25.5583 32 17.1698 32V32ZM3.35934 38.6667H2.58406L2.04717 32.6667H3.90283L3.35934 38.6667ZM34.3396 36H33.6792V16.6667C33.6792 7.46192 26.2877 0 17.1698 0C8.0519 0 0.660377 7.46192 0.660377 16.6667V31.3333H0V32.6667H0.71783L1.32075 39.394C1.35196 39.7383 1.63864 40.0014 1.98113 40H3.96226C4.30475 40.0014 4.59144 39.7383 4.62264 39.394L5.22557 32.6667H5.9434V31.3333H5.28302V28.2253C11.5907 34.8501 22.0239 35.0584 28.5862 28.6907C28.7461 28.5354 28.903 28.377 29.0566 28.2153V36H28.3962C28.0315 36 27.7358 36.2984 27.7358 36.6667V39.3333C27.7358 39.7015 28.0315 40 28.3962 40H34.3396C34.7043 40 35 39.7015 35 39.3333V36.6667C35 36.2984 34.7043 36 34.3396 36V36Z" fill="white"/>
<path fill-rule="evenodd" clip-rule="evenodd" d="M17.1698 25.3332C12.4285 25.3332 8.58491 21.4529 8.58491 16.6665C8.59036 11.8823 12.4308 8.00525 17.1698 7.99984C21.9112 7.99984 25.7547 11.88 25.7547 16.6665C25.7547 21.4529 21.9112 25.3332 17.1698 25.3332M17.1698 6.6665C11.6991 6.6665 7.26416 11.1437 7.26416 16.6665C7.27035 22.1867 11.7016 26.6603 17.1698 26.6665C22.6406 26.6665 27.0755 22.1893 27.0755 16.6665C27.0755 11.1437 22.6406 6.6665 17.1698 6.6665" fill="white"/>
<path fill-rule="evenodd" clip-rule="evenodd" d="M17.1697 22C14.252 22 11.8867 19.6122 11.8867 16.6667C11.89 13.7224 14.2533 11.3367 17.1697 11.3333C20.0874 11.3333 22.4527 13.7211 22.4527 16.6667C22.4527 19.6122 20.0874 22 17.1697 22M17.1697 10C13.5225 10 10.5659 12.9847 10.5659 16.6667C10.57 20.3468 13.5242 23.3292 17.1697 23.3333C20.8169 23.3333 23.7735 20.3486 23.7735 16.6667C23.7735 12.9847 20.8169 10 17.1697 10" fill="white"/>
</g>
</svg>
