<svg width="35" height="35" viewBox="0 0 35 35" fill="none" xmlns="http://www.w3.org/2000/svg">
<mask id="mask0" mask-type="alpha" maskUnits="userSpaceOnUse" x="3" y="0" width="32" height="25">
<path fill-rule="evenodd" clip-rule="evenodd" d="M3.55469 0H35V24.6094H3.55469V0Z" fill="white"/>
</mask>
<g mask="url(#mask0)">
<path fill-rule="evenodd" clip-rule="evenodd" d="M33.6328 22.2754L27.7197 16.3623C27.9791 16.2652 28.1641 16.0158 28.1641 15.7226C28.1641 15.3451 27.8579 15.039 27.4805 15.039H22.9359C20.0819 15.039 18.6781 13.528 17.3725 11.6275C17.5188 11.4037 17.6529 11.172 17.7744 10.934C17.8196 10.9358 17.8648 10.9374 17.9102 10.9374H19.0541C19.8391 12.5912 21.5201 13.6718 23.3789 13.6718C23.7563 13.6718 24.0625 13.3657 24.0625 12.9882C24.0625 12.6107 23.7563 12.3046 23.3789 12.3046C21.9326 12.3046 20.637 11.3889 20.1549 10.0259C20.0583 9.75283 19.8002 9.57024 19.5104 9.57024H17.9102C17.0299 9.57024 16.2651 9.01257 15.9773 8.20306H23.3789C23.7563 8.20306 24.0625 7.89694 24.0625 7.51946C24.0625 7.14198 23.7563 6.83587 23.3789 6.83587H18.5627C18.5211 6.3713 18.4369 5.91473 18.3105 5.46868H24.4629L33.6328 14.6387V22.2754ZM11.0742 13.6719C7.68182 13.6719 4.92188 10.9119 4.92188 7.51953C4.92188 4.12713 7.68182 1.36719 11.0742 1.36719C13.5211 1.36719 15.7353 2.8162 16.715 5.0588C16.9632 5.62707 17.1215 6.22248 17.1889 6.83594H15.1758C14.7983 6.83594 14.4922 7.14205 14.4922 7.51953C14.4922 8.84352 15.2614 10.0261 16.4071 10.5892C15.312 12.4871 13.3152 13.6719 11.0742 13.6719V13.6719ZM34.7998 13.8721L25.2295 4.30179C25.1012 4.17361 24.9274 4.10156 24.7461 4.10156H17.7725C16.4935 1.59599 13.9126 0 11.0742 0C6.92795 0 3.55469 3.37326 3.55469 7.51953C3.55469 11.6658 6.92795 15.0391 11.0742 15.0391C13.148 15.0391 15.0744 14.2116 16.4852 12.7421C17.8789 14.6885 19.6373 16.4062 22.9359 16.4062H25.8301L33.833 24.4092C34.0286 24.6047 34.3226 24.663 34.578 24.5574C34.8334 24.4515 35 24.2023 35 23.9258V14.3555C35 14.1742 34.9279 14.0003 34.7998 13.8721V13.8721Z" fill="white"/>
</g>
<path fill-rule="evenodd" clip-rule="evenodd" d="M10.6641 16.8164C10.2866 16.8164 9.98052 17.1225 9.98052 17.5V20.3613L9.7803 20.1611C9.51328 19.8942 9.08057 19.8942 8.81349 20.1611C8.54655 20.428 8.54655 20.8609 8.81349 21.1279L10.1807 22.4951C10.3143 22.6285 10.4891 22.6952 10.6641 22.6952C10.8391 22.6952 11.014 22.6285 11.1475 22.4951L12.5147 21.1279C12.7816 20.861 12.7816 20.4281 12.5147 20.1611C12.2477 19.8942 11.8149 19.8942 11.5479 20.1611L11.3477 20.3613V17.5C11.3477 17.1225 11.0416 16.8164 10.6641 16.8164" fill="white"/>
<path fill-rule="evenodd" clip-rule="evenodd" d="M19.3648 33.6329H15.7911L15.791 33.6328H1.36719V28.1634H4.56114C4.52888 28.3895 4.51172 28.6176 4.51172 28.8477C4.51172 29.2251 4.81783 29.5313 5.19531 29.5313C5.57279 29.5313 5.87891 29.2251 5.87891 28.8477C5.87891 28.4563 5.94419 28.0729 6.07291 27.7083C6.55478 26.3455 7.85039 25.4297 9.29688 25.429H13.9649C13.6827 26.2255 12.9225 26.7969 12.0312 26.7969H9.29688C8.91939 26.7969 8.61328 27.1031 8.61328 27.4805C8.61328 29.3651 10.1466 30.8985 12.0312 30.8978H18.5443C18.5488 30.8986 18.5536 30.8992 18.5583 30.8992C18.7333 30.8992 18.9081 30.8323 19.0416 30.6989L22.3433 27.3971C22.3461 27.3945 22.3484 27.3914 22.3511 27.3887C22.9994 26.7621 23.9669 26.6497 24.7304 27.0492L19.3648 33.6329ZM18.4762 27.3971C19.1058 26.7674 20.0469 26.6338 20.8093 26.9965L18.2743 29.5312H16.3421L18.4762 27.3971ZM21.8631 26.0319C20.5321 25.1159 18.6916 25.2481 17.5094 26.4303L14.4086 29.5312H12.0312C11.14 29.5312 10.3798 28.9599 10.0976 28.1641H12.0312C13.9159 28.1641 15.4492 26.6308 15.4492 24.7461C15.4492 24.3687 15.1431 24.0625 14.7656 24.0625H9.29688C7.43812 24.0625 5.75805 25.1434 4.97301 26.7969H0.683594C0.306113 26.7969 0 27.1031 0 27.4805V34.3164C0 34.6939 0.306113 35 0.683594 35H13.0566H15.791H19.6896C19.895 35 20.0897 34.9075 20.2195 34.7482L26.2392 27.3621C26.4608 27.0901 26.4406 26.6946 26.1924 26.4466C25.021 25.2756 23.1914 25.1363 21.8631 26.0319V26.0319Z" fill="white"/>
<path fill-rule="evenodd" clip-rule="evenodd" d="M11.6365 5.49197C11.3254 5.35471 10.8677 5.35471 10.4009 5.35471H10.0988V7.4141H10.6022C11.1972 7.4141 11.5725 7.35914 11.8379 7.13034C12.0667 6.93812 12.1582 6.68184 12.1582 6.27913C12.1582 5.90384 11.9111 5.61099 11.6365 5.49197V5.49197ZM7.45361 7.4141H8.32314V4.07324H11.243C12.1124 4.07324 12.6708 4.21967 13.1376 4.52175C13.6959 4.87872 13.9888 5.44624 13.9888 6.24249C13.9888 6.85574 13.7692 7.47815 13.3664 7.88093C12.8172 8.42097 12.1948 8.70473 11.1972 8.70473H10.0988V9.11652H13.6319V10.4163H10.0988V10.938H8.32314V10.4163H7.45361V9.11652H8.32314V8.70473H7.45361V7.4141Z" fill="white"/>
</svg>
