<svg width="48" height="45" viewBox="0 0 48 45" fill="none" xmlns="http://www.w3.org/2000/svg">
<path fill-rule="evenodd" clip-rule="evenodd" d="M23.2194 45H32.3089V38.3593L33.8275 33.0499L40.2659 31.5329L45 26.6027V22.206L43.6744 15.2254L39.8871 12.5707L33.2594 11.6266C33.2594 11.6266 34.3897 1.18376 27.9571 1.00381C21.5246 0.824045 18.6783 7.0717 18.6783 7.0717C18.6783 7.0717 20.1932 4.22737 16.0271 2.33116C11.8611 0.434941 3.71841 -0.0546618 2.01412 5.87879C0.309836 11.8122 -0.644185 20.8432 11.1 22.206C11.1 22.206 9.96746 27.3612 11.8611 30.2055C13.7548 33.0499 20.1932 33.6187 20.1932 33.6187L23.2236 33.464L23.2194 45Z" fill="white"/>
<mask id="mask0" mask-type="alpha" maskUnits="userSpaceOnUse" x="0" y="0" width="48" height="46">
<path fill-rule="evenodd" clip-rule="evenodd" d="M11.3109 0.109375C4.61081 0.11367 0.0568125 6.34589 0 12.4861V12.717C0.0474375 17.8349 3.24487 22.834 10.9573 24.0484C10.7181 24.7068 10.422 25.9549 10.4188 27.0748H10.4398C10.2328 32.6946 16.1147 37.302 21.6568 35.755C23.1403 38.5889 23.9188 41.7482 23.9188 45.0001L26.9188 44.9479C26.9702 40.4998 25.4484 35.8369 22.9723 32.0611C13.2683 36.9345 9.23606 22.1338 19.419 21.0997V18.1122C16.788 18.1122 14.4255 19.2489 12.7783 21.046C-5.70019 20.2423 5.16619 -5.53579 18.4843 6.05292C18.1245 7.0194 17.9188 8.05906 17.9188 9.14952H20.9188C22.0717 -1.68166 38.3222 3.63674 30.9495 14.5137C41.4652 10.9906 47.0715 19.5903 44.0899 26.3679C40.6894 33.5647 30.8057 32.8556 27.7843 26.4355L25.0738 27.7172C26.577 30.8675 29.397 33.162 32.6833 34.0866C30.9602 37.239 29.8886 41.2523 29.9188 45.0001L32.9188 44.9479C32.9053 41.4879 33.9474 37.6155 35.8678 34.5437C35.8712 34.5443 35.8736 34.5437 35.8779 34.5432C35.8843 34.5424 35.8948 34.5417 35.9188 34.5437V34.5407C52.4931 33.5449 51.1791 11.0164 35.784 10.6448C36.7901 5.39958 32.3278 0.0598937 26.9188 0.197321V0.186865C24.1693 0.186865 21.7063 1.4252 20.055 3.36693V3.36711C16.9132 1.07155 13.9571 0.112363 11.3312 0.109375H11.3109Z" fill="white"/>
</mask>
<g mask="url(#mask0)">
<path fill-rule="evenodd" clip-rule="evenodd" d="M11.3109 0.109375C4.61081 0.11367 0.0568125 6.34589 0 12.4861V12.717C0.0474375 17.8349 3.24487 22.834 10.9573 24.0484C10.7181 24.7068 10.422 25.9549 10.4188 27.0748H10.4398C10.2328 32.6946 16.1147 37.302 21.6568 35.755C23.1403 38.5889 23.9188 41.7482 23.9188 45.0001L26.9188 44.9479C26.9702 40.4998 25.4484 35.8369 22.9723 32.0611C13.2683 36.9345 9.23606 22.1338 19.419 21.0997V18.1122C16.788 18.1122 14.4255 19.2489 12.7783 21.046C-5.70019 20.2423 5.16619 -5.53579 18.4843 6.05292C18.1245 7.0194 17.9188 8.05906 17.9188 9.14952H20.9188C22.0717 -1.68166 38.3222 3.63674 30.9495 14.5137C41.4652 10.9906 47.0715 19.5903 44.0899 26.3679C40.6894 33.5647 30.8057 32.8556 27.7843 26.4355L25.0738 27.7172C26.577 30.8675 29.397 33.162 32.6833 34.0866C30.9602 37.239 29.8886 41.2523 29.9188 45.0001L32.9188 44.9479C32.9053 41.4879 33.9474 37.6155 35.8678 34.5437C35.8712 34.5443 35.8736 34.5437 35.8779 34.5432C35.8843 34.5424 35.8948 34.5417 35.9188 34.5437V34.5407C52.4931 33.5449 51.1791 11.0164 35.784 10.6448C36.7901 5.39958 32.3278 0.0598937 26.9188 0.197321V0.186865C24.1693 0.186865 21.7063 1.4252 20.055 3.36693V3.36711C16.9132 1.07155 13.9571 0.112363 11.3312 0.109375H11.3109Z" fill="url(#paint0_linear)"/>
</g>
<mask id="mask1" mask-type="alpha" maskUnits="userSpaceOnUse" x="5" y="7" width="6" height="11">
<path fill-rule="evenodd" clip-rule="evenodd" d="M10.9213 18V15.25C6.92768 15.0197 7.28859 9.85948 10.9213 9.75V7C2.87386 7.46166 3.58659 17.8305 10.9213 18Z" fill="white"/>
</mask>
<g mask="url(#mask1)">
<path fill-rule="evenodd" clip-rule="evenodd" d="M10.9213 18V15.25C6.92768 15.0197 7.28859 9.85948 10.9213 9.75V7C2.87386 7.46166 3.58659 17.8305 10.9213 18Z" fill="url(#paint1_linear)"/>
</g>
<mask id="mask2" mask-type="alpha" maskUnits="userSpaceOnUse" x="37" y="17" width="6" height="11">
<path fill-rule="evenodd" clip-rule="evenodd" d="M37.103 19.75C41.0968 19.9803 40.7359 25.1403 37.103 25.25V28C45.1505 27.5383 44.4378 17.1695 37.103 17V19.75Z" fill="white"/>
</mask>
<g mask="url(#mask2)">
<path fill-rule="evenodd" clip-rule="evenodd" d="M37.103 19.75C41.0968 19.9803 40.7359 25.1403 37.103 25.25V28C45.1505 27.5383 44.4378 17.1695 37.103 17V19.75Z" fill="url(#paint2_linear)"/>
</g>
<defs>
<linearGradient id="paint0_linear" x1="73.3199" y1="92.801" x2="73.3199" y2="0.109287" gradientUnits="userSpaceOnUse">
<stop stop-color="#9E2FFF"/>
<stop offset="1" stop-color="#0BB1D3"/>
</linearGradient>
<linearGradient id="paint1_linear" x1="30.4186" y1="86.75" x2="30.4186" y2="1.42859" gradientUnits="userSpaceOnUse">
<stop stop-color="#9E2FFF"/>
<stop offset="1" stop-color="#0BB1D3"/>
</linearGradient>
<linearGradient id="paint2_linear" x1="62.3717" y1="87.125" x2="62.3717" y2="1.80359" gradientUnits="userSpaceOnUse">
<stop stop-color="#9E2FFF"/>
<stop offset="1" stop-color="#0BB1D3"/>
</linearGradient>
</defs>
</svg>
